<svg xmlns="http://www.w3.org/2000/svg" xmlns:xlink="http://www.w3.org/1999/xlink" width="500" zoomAndPan="magnify" viewBox="0 0 375 374.999991" height="500" preserveAspectRatio="xMidYMid meet" version="1.0"><defs><g/><clipPath id="id1"><path d="M 142 187 L 216 187 L 216 281.246094 L 142 281.246094 Z M 142 187 " clip-rule="nonzero"/></clipPath><clipPath id="id2"><path d="M 205 141 L 267.722656 141 L 267.722656 221 L 205 221 Z M 205 141 " clip-rule="nonzero"/></clipPath><clipPath id="id3"><path d="M 107.222656 141 L 205 141 L 205 188 L 107.222656 188 Z M 107.222656 141 " clip-rule="nonzero"/></clipPath><clipPath id="id4"><path d="M 170 187 L 267.722656 187 L 267.722656 234 L 170 234 Z M 170 187 " clip-rule="nonzero"/></clipPath><clipPath id="id5"><path d="M 107.222656 154 L 171 154 L 171 234 L 107.222656 234 Z M 107.222656 154 " clip-rule="nonzero"/></clipPath><clipPath id="id6"><path d="M 159 93.746094 L 233 93.746094 L 233 188 L 159 188 Z M 159 93.746094 " clip-rule="nonzero"/></clipPath></defs><rect x="-37.5" width="450" fill="#ffffff" y="-37.499999" height="449.999989" fill-opacity="1"/><rect x="-37.5" width="450" fill="#ffffff" y="-37.499999" height="449.999989" fill-opacity="1"/><rect x="-37.5" width="450" fill="#ffffff" y="-37.499999" height="449.999989" fill-opacity="1"/><rect x="-37.5" width="450" fill="#ffffff" y="-37.499999" height="449.999989" fill-opacity="1"/><g clip-path="url(#id1)"><path fill="#2d81c1" d="M 197.773438 233.339844 L 187.707031 250.65625 L 177.640625 233.339844 L 170.277344 220.671875 L 151.113281 187.703125 L 142.339844 202.820312 L 152.613281 220.671875 L 159.90625 233.339844 L 187.496094 281.277344 L 215.085938 233.339844 L 197.773438 233.339844 " fill-opacity="1" fill-rule="nonzero"/></g><g clip-path="url(#id2)"><path fill="#2d81c1" d="M 215.304688 141.910156 L 222.6875 154.789062 L 243.4375 154.789062 L 232.988281 172.761719 L 224.230469 187.832031 L 205.140625 220.671875 L 222.378906 220.671875 L 232.824219 202.523438 L 241.453125 187.53125 L 267.714844 141.910156 L 215.304688 141.910156 " fill-opacity="1" fill-rule="nonzero"/></g><g clip-path="url(#id3)"><path fill="#2d81c1" d="M 197.378906 141.910156 L 107.28125 141.910156 L 133.609375 187.652344 L 142.304688 172.554688 L 131.980469 154.789062 L 204.910156 154.789062 L 197.378906 141.910156 " fill-opacity="1" fill-rule="nonzero"/></g><g clip-path="url(#id4)"><path fill="#204e89" d="M 241.453125 187.53125 L 232.824219 202.523438 L 243.4375 220.671875 L 170.277344 220.671875 L 177.640625 233.339844 L 267.714844 233.339844 L 241.453125 187.53125 " fill-opacity="1" fill-rule="nonzero"/></g><g clip-path="url(#id5)"><path fill="#204e89" d="M 131.980469 220.671875 L 142.339844 202.820312 L 151.113281 187.703125 L 170.214844 154.789062 L 152.542969 154.789062 L 142.304688 172.554688 L 133.609375 187.652344 L 107.28125 233.339844 L 159.90625 233.339844 L 152.613281 220.671875 L 131.980469 220.671875 " fill-opacity="1" fill-rule="nonzero"/></g><g clip-path="url(#id6)"><path fill="#204e89" d="M 222.6875 154.789062 L 215.304688 141.910156 L 187.707031 93.765625 L 159.964844 141.910156 L 177.691406 141.910156 L 187.496094 125.015625 L 197.378906 141.910156 L 204.910156 154.789062 L 224.230469 187.832031 L 232.988281 172.761719 L 222.6875 154.789062 " fill-opacity="1" fill-rule="nonzero"/></g><g fill="#000000" fill-opacity="1"><g transform="translate(160.374985, 197.999987)"><g><path d="M 9.609375 -5.292969 L 9.609375 -21.421875 L 7.402344 -21.421875 L 7.402344 -5.292969 C 7.402344 -3.9375 6.867188 -2.992188 5.859375 -2.425781 C 5.007812 -1.921875 3.96875 -1.765625 2.742188 -1.921875 C 1.605469 -2.046875 0.722656 -2.363281 0.15625 -2.867188 L 0.15625 -0.441406 C 0.347656 -0.253906 0.722656 -0.09375 1.292969 0.0625 C 1.859375 0.21875 2.488281 0.316406 3.179688 0.316406 C 4.882812 0.378906 6.300781 0.03125 7.433594 -0.757812 C 8.882812 -1.699219 9.609375 -3.214844 9.609375 -5.292969 Z M 9.609375 -5.292969 "/></g></g></g><g fill="#000000" fill-opacity="1"><g transform="translate(171.872497, 197.999987)"><g><path d="M 8.285156 -10.078125 C 11.054688 -9.417969 12.945312 -8.695312 13.953125 -7.875 C 14.648438 -7.308594 14.992188 -6.582031 14.992188 -5.703125 C 14.992188 -4.820312 14.804688 -4.09375 14.425781 -3.589844 C 13.480469 -2.269531 11.78125 -1.605469 9.386719 -1.605469 C 6.046875 -1.605469 4.15625 -2.742188 3.75 -5.007812 L 1.164062 -5.007812 C 1.921875 -1.386719 4.660156 0.410156 9.386719 0.410156 C 11.496094 0.410156 13.261719 -0.03125 14.679688 -0.976562 C 16.378906 -2.078125 17.261719 -3.71875 17.261719 -5.859375 C 17.261719 -7.621094 16.570312 -8.976562 15.183594 -9.921875 C 14.207031 -10.617188 12.632812 -11.246094 10.457031 -11.8125 C 8.253906 -12.378906 6.835938 -12.851562 6.175781 -13.199219 C 4.726562 -13.921875 4 -14.929688 4.03125 -16.253906 C 4.03125 -16.945312 4.15625 -17.546875 4.472656 -17.988281 C 5.292969 -19.214844 6.742188 -19.84375 8.820312 -19.84375 C 11.75 -19.84375 13.417969 -18.898438 13.859375 -17.074219 L 16.253906 -17.074219 C 15.464844 -20.160156 12.976562 -21.734375 8.820312 -21.734375 C 6.929688 -21.734375 5.261719 -21.230469 3.875 -20.222656 C 2.457031 -19.214844 1.734375 -17.734375 1.734375 -15.71875 C 1.734375 -12.976562 3.9375 -11.089844 8.285156 -10.078125 Z M 8.285156 -10.078125 "/></g></g></g><g fill="#000000" fill-opacity="1"><g transform="translate(189.95352, 197.999987)"><g><path d="M 22.113281 0 L 24.347656 0 L 19.371094 -22.835938 L 12.347656 -4.503906 L 5.324219 -22.835938 L 0.316406 0 L 2.582031 0 L 5.890625 -15.246094 L 12.347656 1.261719 L 18.773438 -15.246094 Z M 22.113281 0 "/></g></g></g></svg>