<svg xmlns="http://www.w3.org/2000/svg" xmlns:xlink="http://www.w3.org/1999/xlink" width="48" zoomAndPan="magnify" viewBox="0 0 36 36.000001" height="48" preserveAspectRatio="xMidYMid meet" version="1.0"><defs><clipPath id="id1"><path d="M 0.488281 0 L 35.511719 0 L 35.511719 35.027344 L 0.488281 35.027344 Z M 0.488281 0 " clip-rule="nonzero"/></clipPath><clipPath id="id2"><path d="M 6.003906 0 L 32 0 L 32 35.027344 L 6.003906 35.027344 Z M 6.003906 0 " clip-rule="nonzero"/></clipPath></defs><g clip-path="url(#id1)"><path fill="#ffffff" d="M 0.488281 0 L 35.511719 0 L 35.511719 42.324219 L 0.488281 42.324219 Z M 0.488281 0 " fill-opacity="1" fill-rule="nonzero"/><path fill="#ffffff" d="M 0.488281 0 L 35.511719 0 L 35.511719 35.027344 L 0.488281 35.027344 Z M 0.488281 0 " fill-opacity="1" fill-rule="nonzero"/><path fill="#ffffff" d="M 0.488281 0 L 35.511719 0 L 35.511719 35.027344 L 0.488281 35.027344 Z M 0.488281 0 " fill-opacity="1" fill-rule="nonzero"/><path fill="#ffffff" d="M 0.488281 0 L 35.511719 0 L 35.511719 35.027344 L 0.488281 35.027344 Z M 0.488281 0 " fill-opacity="1" fill-rule="nonzero"/></g><path fill="#ffce31" d="M 29.261719 14.695312 L 28.589844 14.695312 L 28.589844 9.914062 C 28.589844 9.3125 28.53125 8.714844 28.414062 8.125 C 28.292969 7.535156 28.117188 6.960938 27.886719 6.402344 C 27.652344 5.847656 27.367188 5.320312 27.03125 4.820312 C 26.691406 4.320312 26.308594 3.855469 25.878906 3.429688 C 25.449219 3.003906 24.980469 2.625 24.472656 2.289062 C 23.96875 1.953125 23.433594 1.671875 22.871094 1.441406 C 22.308594 1.210938 21.730469 1.039062 21.132812 0.921875 C 20.539062 0.804688 19.933594 0.742188 19.328125 0.742188 C 18.71875 0.742188 18.117188 0.804688 17.519531 0.921875 C 16.921875 1.039062 16.34375 1.210938 15.78125 1.441406 C 15.21875 1.671875 14.683594 1.953125 14.179688 2.289062 C 13.671875 2.625 13.203125 3.003906 12.773438 3.429688 C 12.34375 3.855469 11.960938 4.320312 11.621094 4.820312 C 11.285156 5.320312 11 5.847656 10.765625 6.402344 C 10.535156 6.960938 10.359375 7.535156 10.238281 8.125 C 10.121094 8.714844 10.0625 9.3125 10.0625 9.914062 L 10.0625 14.695312 L 9.390625 14.695312 C 9.105469 14.695312 8.832031 14.75 8.566406 14.859375 C 8.304688 14.964844 8.070312 15.121094 7.871094 15.320312 C 7.667969 15.519531 7.515625 15.75 7.40625 16.007812 C 7.296875 16.269531 7.242188 16.539062 7.242188 16.824219 L 7.242188 32.503906 C 7.242188 32.785156 7.296875 33.054688 7.40625 33.316406 C 7.515625 33.578125 7.667969 33.804688 7.871094 34.003906 C 8.070312 34.203125 8.304688 34.359375 8.566406 34.464844 C 8.832031 34.574219 9.105469 34.628906 9.390625 34.628906 L 29.261719 34.628906 C 29.546875 34.628906 29.820312 34.574219 30.085938 34.464844 C 30.347656 34.359375 30.582031 34.203125 30.78125 34.003906 C 30.984375 33.804688 31.140625 33.578125 31.246094 33.316406 C 31.355469 33.054688 31.410156 32.785156 31.410156 32.503906 L 31.410156 16.824219 C 31.410156 16.539062 31.355469 16.269531 31.246094 16.007812 C 31.140625 15.75 30.984375 15.519531 30.78125 15.320312 C 30.582031 15.121094 30.347656 14.964844 30.085938 14.859375 C 29.820312 14.75 29.546875 14.695312 29.261719 14.695312 Z M 13.015625 9.914062 C 13.015625 9.503906 13.054688 9.097656 13.136719 8.695312 C 13.21875 8.292969 13.335938 7.902344 13.496094 7.523438 C 13.652344 7.144531 13.847656 6.785156 14.078125 6.441406 C 14.308594 6.101562 14.570312 5.785156 14.863281 5.496094 C 15.15625 5.207031 15.476562 4.949219 15.820312 4.71875 C 16.164062 4.492188 16.527344 4.300781 16.910156 4.144531 C 17.292969 3.984375 17.6875 3.867188 18.09375 3.789062 C 18.5 3.707031 18.910156 3.667969 19.328125 3.667969 C 19.742188 3.667969 20.152344 3.707031 20.558594 3.789062 C 20.964844 3.867188 21.359375 3.984375 21.742188 4.144531 C 22.125 4.300781 22.488281 4.492188 22.832031 4.71875 C 23.175781 4.949219 23.496094 5.207031 23.789062 5.496094 C 24.082031 5.785156 24.34375 6.101562 24.574219 6.441406 C 24.804688 6.785156 25 7.144531 25.15625 7.523438 C 25.316406 7.902344 25.433594 8.292969 25.515625 8.695312 C 25.597656 9.097656 25.636719 9.503906 25.636719 9.914062 L 25.636719 14.695312 L 13.015625 14.695312 Z M 13.015625 9.914062 " fill-opacity="1" fill-rule="nonzero"/><path fill="#ffffff" d="M 11.136719 14.5625 C 11.136719 14.5625 10.867188 8.449219 11.671875 6.855469 C 12.476562 5.261719 13.285156 3.933594 15.433594 2.871094 C 16.949219 2.101562 18.5625 1.746094 20.265625 1.808594 C 21.339844 1.808594 22.414062 1.542969 22.683594 1.011719 C 20.832031 0.363281 18.949219 0.273438 17.042969 0.742188 C 14.089844 1.542969 13.550781 2.074219 11.941406 3.933594 C 10.328125 5.792969 10.0625 6.324219 9.792969 8.449219 C 9.523438 10.578125 9.691406 14.703125 9.691406 14.703125 Z M 11.136719 14.5625 " fill-opacity="1" fill-rule="nonzero"/><path fill="#1a1a1a" d="M 7.375 31.839844 C 8.988281 33.433594 12.746094 32.902344 14.089844 32.902344 C 15.460938 32.902344 20.667969 33.035156 23.625 33.035156 C 26.578125 33.035156 30.875 33.566406 31.410156 30.640625 C 31.410156 30.640625 32.25 34.160156 29.949219 34.527344 C 27.652344 34.894531 8.851562 34.628906 8.851562 34.628906 C 8.851562 34.628906 6.839844 33.699219 7.375 31.839844 Z M 7.375 31.839844 " fill-opacity="1" fill-rule="nonzero"/><path fill="#ffffff" d="M 7.375 19.347656 C 7.375 19.347656 8.59375 17.234375 10.0625 16.691406 C 12.210938 15.890625 15.433594 16.691406 19.191406 16.691406 C 22.953125 16.691406 26.710938 16.691406 28.589844 16.425781 C 30.472656 16.15625 30.488281 15.914062 30.472656 15.09375 C 30.472656 15.09375 29.398438 14.828125 26.980469 14.828125 C 24.5625 14.828125 9.253906 14.5625 9.253906 14.5625 C 9.253906 14.5625 6.03125 15.625 7.375 19.347656 Z M 7.375 19.347656 " fill-opacity="1" fill-rule="nonzero"/><path fill="#1a1a1a" d="M 19.328125 29.710938 C 19.09375 29.710938 18.871094 29.667969 18.660156 29.578125 C 18.445312 29.492188 18.257812 29.367188 18.09375 29.207031 C 17.929688 29.042969 17.804688 28.855469 17.714844 28.644531 C 17.625 28.433594 17.582031 28.214844 17.582031 27.984375 L 17.582031 25.457031 C 17.308594 25.273438 17.074219 25.050781 16.871094 24.789062 C 16.671875 24.53125 16.519531 24.246094 16.410156 23.941406 C 16.300781 23.632812 16.242188 23.3125 16.238281 22.988281 C 16.234375 22.660156 16.277344 22.34375 16.375 22.03125 C 16.472656 21.71875 16.617188 21.429688 16.808594 21.164062 C 17 20.898438 17.226562 20.667969 17.492188 20.476562 C 17.757812 20.28125 18.046875 20.132812 18.363281 20.03125 C 18.675781 19.929688 18.996094 19.878906 19.328125 19.878906 C 19.441406 19.878906 19.554688 19.882812 19.664062 19.898438 C 19.980469 19.929688 20.28125 20.011719 20.570312 20.136719 C 20.859375 20.261719 21.121094 20.425781 21.359375 20.632812 C 21.597656 20.835938 21.796875 21.074219 21.960938 21.339844 C 22.125 21.605469 22.246094 21.890625 22.324219 22.191406 C 22.398438 22.496094 22.429688 22.800781 22.410156 23.113281 C 22.390625 23.425781 22.328125 23.726562 22.214844 24.019531 C 22.101562 24.308594 21.949219 24.578125 21.753906 24.824219 C 21.558594 25.070312 21.332031 25.28125 21.070312 25.457031 L 21.070312 27.984375 C 21.070312 28.214844 21.027344 28.433594 20.9375 28.644531 C 20.851562 28.855469 20.722656 29.042969 20.558594 29.207031 C 20.394531 29.367188 20.207031 29.492188 19.992188 29.578125 C 19.78125 29.667969 19.558594 29.710938 19.328125 29.710938 Z M 19.328125 29.710938 " fill-opacity="1" fill-rule="nonzero"/><g clip-path="url(#id2)"><path fill="#1a1a1a" d="M 29.398438 14.304688 L 29.398438 9.914062 C 29.398438 9.257812 29.332031 8.609375 29.203125 7.96875 C 29.074219 7.328125 28.882812 6.703125 28.628906 6.097656 C 28.378906 5.496094 28.066406 4.921875 27.699219 4.375 C 27.332031 3.832031 26.914062 3.328125 26.449219 2.867188 C 25.980469 2.402344 25.472656 1.988281 24.921875 1.625 C 24.371094 1.261719 23.792969 0.957031 23.179688 0.707031 C 22.570312 0.453125 21.941406 0.265625 21.292969 0.136719 C 20.640625 0.0117188 19.988281 -0.0546875 19.328125 -0.0546875 C 18.664062 -0.0546875 18.011719 0.0117188 17.363281 0.136719 C 16.714844 0.265625 16.082031 0.453125 15.472656 0.707031 C 14.863281 0.957031 14.28125 1.261719 13.730469 1.625 C 13.179688 1.988281 12.671875 2.402344 12.207031 2.867188 C 11.738281 3.328125 11.320312 3.832031 10.953125 4.375 C 10.585938 4.921875 10.273438 5.496094 10.023438 6.097656 C 9.769531 6.703125 9.578125 7.328125 9.449219 7.96875 C 9.320312 8.609375 9.253906 9.257812 9.253906 9.914062 L 9.253906 14.304688 C 8.929688 14.320312 8.617188 14.398438 8.320312 14.53125 C 8.027344 14.667969 7.765625 14.851562 7.539062 15.085938 C 7.316406 15.320312 7.140625 15.589844 7.019531 15.886719 C 6.898438 16.1875 6.839844 16.5 6.839844 16.824219 L 6.839844 32.503906 C 6.839844 32.835938 6.902344 33.160156 7.035156 33.46875 C 7.164062 33.777344 7.347656 34.050781 7.585938 34.285156 C 7.824219 34.523438 8.101562 34.707031 8.414062 34.835938 C 8.726562 34.960938 9.050781 35.027344 9.390625 35.027344 L 29.261719 35.027344 C 29.601562 35.027344 29.925781 34.960938 30.238281 34.835938 C 30.550781 34.707031 30.828125 34.523438 31.066406 34.285156 C 31.304688 34.050781 31.488281 33.777344 31.621094 33.46875 C 31.75 33.160156 31.8125 32.835938 31.8125 32.503906 L 31.8125 16.824219 C 31.8125 16.5 31.753906 16.1875 31.632812 15.886719 C 31.511719 15.589844 31.335938 15.320312 31.113281 15.085938 C 30.886719 14.851562 30.628906 14.667969 30.332031 14.53125 C 30.035156 14.398438 29.722656 14.320312 29.398438 14.304688 Z M 19.328125 0.742188 C 19.933594 0.746094 20.535156 0.804688 21.132812 0.921875 C 21.730469 1.039062 22.308594 1.214844 22.871094 1.445312 C 23.433594 1.675781 23.964844 1.957031 24.472656 2.292969 C 24.976562 2.628906 25.445312 3.007812 25.875 3.433594 C 26.304688 3.859375 26.6875 4.320312 27.027344 4.820312 C 27.363281 5.320312 27.648438 5.851562 27.882812 6.40625 C 28.117188 6.960938 28.292969 7.535156 28.410156 8.125 C 28.53125 8.714844 28.589844 9.3125 28.589844 9.914062 L 28.589844 14.296875 L 25.636719 14.296875 L 25.636719 9.914062 C 25.636719 9.503906 25.597656 9.097656 25.515625 8.695312 C 25.433594 8.292969 25.316406 7.902344 25.15625 7.523438 C 25 7.144531 24.804688 6.785156 24.574219 6.441406 C 24.34375 6.101562 24.082031 5.785156 23.789062 5.496094 C 23.496094 5.207031 23.175781 4.949219 22.832031 4.71875 C 22.488281 4.492188 22.125 4.300781 21.742188 4.144531 C 21.359375 3.984375 20.964844 3.867188 20.558594 3.789062 C 20.152344 3.707031 19.742188 3.667969 19.328125 3.667969 C 18.910156 3.667969 18.5 3.707031 18.09375 3.789062 C 17.6875 3.867188 17.292969 3.984375 16.910156 4.144531 C 16.527344 4.300781 16.164062 4.492188 15.820312 4.71875 C 15.476562 4.949219 15.15625 5.207031 14.863281 5.496094 C 14.570312 5.785156 14.308594 6.101562 14.078125 6.441406 C 13.847656 6.785156 13.652344 7.144531 13.496094 7.523438 C 13.335938 7.902344 13.21875 8.292969 13.136719 8.695312 C 13.054688 9.097656 13.015625 9.503906 13.015625 9.914062 L 13.015625 14.296875 L 10.0625 14.296875 L 10.0625 9.914062 C 10.0625 9.3125 10.121094 8.714844 10.242188 8.125 C 10.359375 7.535156 10.535156 6.960938 10.769531 6.40625 C 11.003906 5.851562 11.289062 5.320312 11.625 4.820312 C 11.964844 4.320312 12.347656 3.859375 12.777344 3.433594 C 13.207031 3.007812 13.675781 2.628906 14.179688 2.292969 C 14.6875 1.957031 15.222656 1.675781 15.78125 1.445312 C 16.34375 1.214844 16.921875 1.039062 17.519531 0.921875 C 18.117188 0.804688 18.71875 0.746094 19.328125 0.742188 Z M 24.832031 14.296875 L 13.820312 14.296875 L 13.820312 9.914062 C 13.820312 9.554688 13.855469 9.199219 13.925781 8.851562 C 13.996094 8.5 14.101562 8.160156 14.238281 7.828125 C 14.378906 7.496094 14.546875 7.183594 14.75 6.886719 C 14.949219 6.589844 15.179688 6.3125 15.433594 6.058594 C 15.6875 5.808594 15.96875 5.582031 16.269531 5.382812 C 16.566406 5.183594 16.886719 5.015625 17.21875 4.878906 C 17.554688 4.742188 17.898438 4.640625 18.253906 4.570312 C 18.605469 4.5 18.964844 4.464844 19.328125 4.464844 C 19.6875 4.464844 20.046875 4.5 20.402344 4.570312 C 20.753906 4.640625 21.097656 4.742188 21.433594 4.878906 C 21.765625 5.015625 22.085938 5.183594 22.386719 5.382812 C 22.6875 5.582031 22.964844 5.808594 23.21875 6.058594 C 23.476562 6.3125 23.703125 6.589844 23.902344 6.886719 C 24.105469 7.183594 24.273438 7.496094 24.414062 7.828125 C 24.550781 8.160156 24.65625 8.5 24.726562 8.851562 C 24.796875 9.199219 24.832031 9.554688 24.832031 9.914062 Z M 31.007812 32.503906 C 31.007812 32.730469 30.964844 32.953125 30.875 33.164062 C 30.785156 33.375 30.660156 33.5625 30.496094 33.722656 C 30.332031 33.886719 30.144531 34.011719 29.929688 34.097656 C 29.71875 34.183594 29.496094 34.230469 29.261719 34.230469 L 9.390625 34.230469 C 9.160156 34.230469 8.9375 34.183594 8.722656 34.097656 C 8.507812 34.011719 8.320312 33.886719 8.15625 33.722656 C 7.992188 33.5625 7.867188 33.375 7.777344 33.164062 C 7.6875 32.953125 7.644531 32.730469 7.644531 32.503906 L 7.644531 16.824219 C 7.644531 16.59375 7.6875 16.375 7.777344 16.160156 C 7.867188 15.949219 7.992188 15.761719 8.15625 15.601562 C 8.320312 15.441406 8.507812 15.316406 8.722656 15.226562 C 8.9375 15.140625 9.160156 15.09375 9.390625 15.09375 L 29.261719 15.09375 C 29.496094 15.09375 29.71875 15.140625 29.929688 15.226562 C 30.144531 15.316406 30.332031 15.441406 30.496094 15.601562 C 30.660156 15.761719 30.785156 15.949219 30.875 16.160156 C 30.964844 16.375 31.007812 16.59375 31.007812 16.824219 Z M 31.007812 32.503906 " fill-opacity="1" fill-rule="nonzero"/></g></svg>