<svg xmlns="http://www.w3.org/2000/svg" xmlns:xlink="http://www.w3.org/1999/xlink" width="500" zoomAndPan="magnify" viewBox="0 0 375 374.999991" height="500" preserveAspectRatio="xMidYMid meet" version="1.0"><defs><g/></defs><path fill="#3170f7" d="M 48.070312 139.433594 C 21.523438 139.433594 0 160.953125 0 187.503906 C 0 214.050781 21.523438 235.574219 48.070312 235.574219 C 74.617188 235.574219 96.140625 214.050781 96.140625 187.503906 C 96.140625 160.953125 74.617188 139.433594 48.070312 139.433594 " fill-opacity="1" fill-rule="nonzero"/><g fill="#ffffff" fill-opacity="1"><g transform="translate(7.356188, 184.199055)"><g><path d="M 6.8125 -3.703125 C 6.8125 -2.503906 6.484375 -1.585938 5.828125 -0.953125 C 5.171875 -0.316406 4.234375 0 3.015625 0 L 1 0 L 1 -7.265625 L 3.234375 -7.265625 C 4.359375 -7.265625 5.234375 -6.953125 5.859375 -6.328125 C 6.492188 -5.703125 6.8125 -4.828125 6.8125 -3.703125 Z M 5.90625 -3.671875 C 5.90625 -4.617188 5.664062 -5.332031 5.1875 -5.8125 C 4.71875 -6.300781 4.015625 -6.546875 3.078125 -6.546875 L 1.84375 -6.546875 L 1.84375 -0.734375 L 2.875 -0.734375 C 3.882812 -0.734375 4.640625 -0.976562 5.140625 -1.46875 C 5.648438 -1.96875 5.90625 -2.703125 5.90625 -3.671875 Z M 5.90625 -3.671875 "/></g></g></g><g fill="#ffffff" fill-opacity="1"><g transform="translate(14.782169, 184.199055)"><g><path d="M 3.171875 0.09375 C 2.367188 0.09375 1.734375 -0.148438 1.265625 -0.640625 C 0.804688 -1.128906 0.578125 -1.8125 0.578125 -2.6875 C 0.578125 -3.5625 0.789062 -4.253906 1.21875 -4.765625 C 1.65625 -5.285156 2.238281 -5.546875 2.96875 -5.546875 C 3.644531 -5.546875 4.179688 -5.320312 4.578125 -4.875 C 4.984375 -4.425781 5.1875 -3.832031 5.1875 -3.09375 L 5.1875 -2.578125 L 1.421875 -2.578125 C 1.441406 -1.929688 1.601562 -1.441406 1.90625 -1.109375 C 2.21875 -0.785156 2.648438 -0.625 3.203125 -0.625 C 3.796875 -0.625 4.378906 -0.742188 4.953125 -0.984375 L 4.953125 -0.25 C 4.660156 -0.125 4.382812 -0.0351562 4.125 0.015625 C 3.863281 0.0664062 3.546875 0.09375 3.171875 0.09375 Z M 2.953125 -4.859375 C 2.515625 -4.859375 2.164062 -4.710938 1.90625 -4.421875 C 1.644531 -4.140625 1.492188 -3.75 1.453125 -3.25 L 4.296875 -3.25 C 4.296875 -3.769531 4.175781 -4.164062 3.9375 -4.4375 C 3.707031 -4.71875 3.378906 -4.859375 2.953125 -4.859375 Z M 2.953125 -4.859375 "/></g></g></g><g fill="#ffffff" fill-opacity="1"><g transform="translate(20.497141, 184.199055)"><g><path d="M 2.0625 0 L 0 -5.453125 L 0.890625 -5.453125 L 2.0625 -2.21875 C 2.320312 -1.457031 2.476562 -0.96875 2.53125 -0.75 L 2.5625 -0.75 C 2.601562 -0.925781 2.71875 -1.289062 2.90625 -1.84375 C 3.101562 -2.394531 3.539062 -3.597656 4.21875 -5.453125 L 5.109375 -5.453125 L 3.03125 0 Z M 2.0625 0 "/></g></g></g><g fill="#ffffff" fill-opacity="1"><g transform="translate(25.600327, 184.199055)"><g><path d="M 3.171875 0.09375 C 2.367188 0.09375 1.734375 -0.148438 1.265625 -0.640625 C 0.804688 -1.128906 0.578125 -1.8125 0.578125 -2.6875 C 0.578125 -3.5625 0.789062 -4.253906 1.21875 -4.765625 C 1.65625 -5.285156 2.238281 -5.546875 2.96875 -5.546875 C 3.644531 -5.546875 4.179688 -5.320312 4.578125 -4.875 C 4.984375 -4.425781 5.1875 -3.832031 5.1875 -3.09375 L 5.1875 -2.578125 L 1.421875 -2.578125 C 1.441406 -1.929688 1.601562 -1.441406 1.90625 -1.109375 C 2.21875 -0.785156 2.648438 -0.625 3.203125 -0.625 C 3.796875 -0.625 4.378906 -0.742188 4.953125 -0.984375 L 4.953125 -0.25 C 4.660156 -0.125 4.382812 -0.0351562 4.125 0.015625 C 3.863281 0.0664062 3.546875 0.09375 3.171875 0.09375 Z M 2.953125 -4.859375 C 2.515625 -4.859375 2.164062 -4.710938 1.90625 -4.421875 C 1.644531 -4.140625 1.492188 -3.75 1.453125 -3.25 L 4.296875 -3.25 C 4.296875 -3.769531 4.175781 -4.164062 3.9375 -4.4375 C 3.707031 -4.71875 3.378906 -4.859375 2.953125 -4.859375 Z M 2.953125 -4.859375 "/></g></g></g><g fill="#ffffff" fill-opacity="1"><g transform="translate(31.315299, 184.199055)"><g><path d="M 1.703125 0 L 0.875 0 L 0.875 -7.734375 L 1.703125 -7.734375 Z M 1.703125 0 "/></g></g></g><g fill="#ffffff" fill-opacity="1"><g transform="translate(33.891761, 184.199055)"><g><path d="M 5.578125 -2.734375 C 5.578125 -1.835938 5.351562 -1.140625 4.90625 -0.640625 C 4.457031 -0.148438 3.835938 0.09375 3.046875 0.09375 C 2.566406 0.09375 2.132812 -0.0195312 1.75 -0.25 C 1.375 -0.476562 1.082031 -0.804688 0.875 -1.234375 C 0.675781 -1.660156 0.578125 -2.160156 0.578125 -2.734375 C 0.578125 -3.617188 0.796875 -4.304688 1.234375 -4.796875 C 1.679688 -5.296875 2.300781 -5.546875 3.09375 -5.546875 C 3.851562 -5.546875 4.457031 -5.289062 4.90625 -4.78125 C 5.351562 -4.28125 5.578125 -3.597656 5.578125 -2.734375 Z M 1.421875 -2.734375 C 1.421875 -2.035156 1.5625 -1.503906 1.84375 -1.140625 C 2.125 -0.773438 2.535156 -0.59375 3.078125 -0.59375 C 3.617188 -0.59375 4.023438 -0.773438 4.296875 -1.140625 C 4.578125 -1.503906 4.71875 -2.035156 4.71875 -2.734375 C 4.71875 -3.421875 4.578125 -3.941406 4.296875 -4.296875 C 4.023438 -4.660156 3.613281 -4.84375 3.0625 -4.84375 C 2.519531 -4.84375 2.109375 -4.664062 1.828125 -4.3125 C 1.554688 -3.957031 1.421875 -3.429688 1.421875 -2.734375 Z M 1.421875 -2.734375 "/></g></g></g><g fill="#ffffff" fill-opacity="1"><g transform="translate(40.044433, 184.199055)"><g><path d="M 3.40625 0.09375 C 3.050781 0.09375 2.726562 0.03125 2.4375 -0.09375 C 2.144531 -0.226562 1.898438 -0.429688 1.703125 -0.703125 L 1.640625 -0.703125 C 1.679688 -0.378906 1.703125 -0.078125 1.703125 0.203125 L 1.703125 2.453125 L 0.875 2.453125 L 0.875 -5.453125 L 1.546875 -5.453125 L 1.65625 -4.703125 L 1.703125 -4.703125 C 1.910156 -5.003906 2.15625 -5.21875 2.4375 -5.34375 C 2.71875 -5.476562 3.039062 -5.546875 3.40625 -5.546875 C 4.132812 -5.546875 4.691406 -5.296875 5.078125 -4.796875 C 5.472656 -4.304688 5.671875 -3.617188 5.671875 -2.734375 C 5.671875 -1.835938 5.472656 -1.140625 5.078125 -0.640625 C 4.679688 -0.148438 4.125 0.09375 3.40625 0.09375 Z M 3.296875 -4.84375 C 2.734375 -4.84375 2.328125 -4.6875 2.078125 -4.375 C 1.835938 -4.070312 1.710938 -3.585938 1.703125 -2.921875 L 1.703125 -2.734375 C 1.703125 -1.960938 1.828125 -1.410156 2.078125 -1.078125 C 2.335938 -0.753906 2.75 -0.59375 3.3125 -0.59375 C 3.78125 -0.59375 4.144531 -0.78125 4.40625 -1.15625 C 4.675781 -1.539062 4.8125 -2.066406 4.8125 -2.734375 C 4.8125 -3.421875 4.675781 -3.941406 4.40625 -4.296875 C 4.144531 -4.660156 3.773438 -4.84375 3.296875 -4.84375 Z M 3.296875 -4.84375 "/></g></g></g><g fill="#ffffff" fill-opacity="1"><g transform="translate(46.286634, 184.199055)"><g><path d="M 7.828125 0 L 7.828125 -3.546875 C 7.828125 -3.984375 7.734375 -4.304688 7.546875 -4.515625 C 7.359375 -4.734375 7.070312 -4.84375 6.6875 -4.84375 C 6.164062 -4.84375 5.78125 -4.695312 5.53125 -4.40625 C 5.289062 -4.113281 5.171875 -3.660156 5.171875 -3.046875 L 5.171875 0 L 4.34375 0 L 4.34375 -3.546875 C 4.34375 -3.984375 4.25 -4.304688 4.0625 -4.515625 C 3.882812 -4.734375 3.597656 -4.84375 3.203125 -4.84375 C 2.679688 -4.84375 2.300781 -4.6875 2.0625 -4.375 C 1.820312 -4.070312 1.703125 -3.566406 1.703125 -2.859375 L 1.703125 0 L 0.875 0 L 0.875 -5.453125 L 1.546875 -5.453125 L 1.6875 -4.703125 L 1.71875 -4.703125 C 1.875 -4.972656 2.09375 -5.179688 2.375 -5.328125 C 2.664062 -5.472656 2.984375 -5.546875 3.328125 -5.546875 C 4.179688 -5.546875 4.738281 -5.238281 5 -4.625 L 5.046875 -4.625 C 5.203125 -4.90625 5.4375 -5.128906 5.75 -5.296875 C 6.0625 -5.460938 6.414062 -5.546875 6.8125 -5.546875 C 7.425781 -5.546875 7.882812 -5.382812 8.1875 -5.0625 C 8.5 -4.75 8.65625 -4.25 8.65625 -3.5625 L 8.65625 0 Z M 7.828125 0 "/></g></g></g><g fill="#ffffff" fill-opacity="1"><g transform="translate(55.761848, 184.199055)"><g><path d="M 3.171875 0.09375 C 2.367188 0.09375 1.734375 -0.148438 1.265625 -0.640625 C 0.804688 -1.128906 0.578125 -1.8125 0.578125 -2.6875 C 0.578125 -3.5625 0.789062 -4.253906 1.21875 -4.765625 C 1.65625 -5.285156 2.238281 -5.546875 2.96875 -5.546875 C 3.644531 -5.546875 4.179688 -5.320312 4.578125 -4.875 C 4.984375 -4.425781 5.1875 -3.832031 5.1875 -3.09375 L 5.1875 -2.578125 L 1.421875 -2.578125 C 1.441406 -1.929688 1.601562 -1.441406 1.90625 -1.109375 C 2.21875 -0.785156 2.648438 -0.625 3.203125 -0.625 C 3.796875 -0.625 4.378906 -0.742188 4.953125 -0.984375 L 4.953125 -0.25 C 4.660156 -0.125 4.382812 -0.0351562 4.125 0.015625 C 3.863281 0.0664062 3.546875 0.09375 3.171875 0.09375 Z M 2.953125 -4.859375 C 2.515625 -4.859375 2.164062 -4.710938 1.90625 -4.421875 C 1.644531 -4.140625 1.492188 -3.75 1.453125 -3.25 L 4.296875 -3.25 C 4.296875 -3.769531 4.175781 -4.164062 3.9375 -4.4375 C 3.707031 -4.71875 3.378906 -4.859375 2.953125 -4.859375 Z M 2.953125 -4.859375 "/></g></g></g><g fill="#ffffff" fill-opacity="1"><g transform="translate(61.47682, 184.199055)"><g><path d="M 4.609375 0 L 4.609375 -3.53125 C 4.609375 -3.96875 4.503906 -4.296875 4.296875 -4.515625 C 4.097656 -4.734375 3.785156 -4.84375 3.359375 -4.84375 C 2.785156 -4.84375 2.363281 -4.6875 2.09375 -4.375 C 1.832031 -4.070312 1.703125 -3.566406 1.703125 -2.859375 L 1.703125 0 L 0.875 0 L 0.875 -5.453125 L 1.546875 -5.453125 L 1.6875 -4.703125 L 1.71875 -4.703125 C 1.882812 -4.972656 2.117188 -5.179688 2.421875 -5.328125 C 2.734375 -5.472656 3.078125 -5.546875 3.453125 -5.546875 C 4.109375 -5.546875 4.601562 -5.382812 4.9375 -5.0625 C 5.269531 -4.75 5.4375 -4.25 5.4375 -3.5625 L 5.4375 0 Z M 4.609375 0 "/></g></g></g><g fill="#ffffff" fill-opacity="1"><g transform="translate(67.728969, 184.199055)"><g><path d="M 2.640625 -0.578125 C 2.785156 -0.578125 2.925781 -0.585938 3.0625 -0.609375 C 3.195312 -0.628906 3.300781 -0.65625 3.375 -0.6875 L 3.375 -0.046875 C 3.289062 -0.00390625 3.160156 0.0234375 2.984375 0.046875 C 2.804688 0.078125 2.648438 0.09375 2.515625 0.09375 C 1.460938 0.09375 0.9375 -0.457031 0.9375 -1.5625 L 0.9375 -4.8125 L 0.15625 -4.8125 L 0.15625 -5.203125 L 0.9375 -5.546875 L 1.28125 -6.71875 L 1.765625 -6.71875 L 1.765625 -5.453125 L 3.34375 -5.453125 L 3.34375 -4.8125 L 1.765625 -4.8125 L 1.765625 -1.609375 C 1.765625 -1.273438 1.84375 -1.019531 2 -0.84375 C 2.15625 -0.664062 2.367188 -0.578125 2.640625 -0.578125 Z M 2.640625 -0.578125 "/></g></g></g><g fill="#ffffff" fill-opacity="1"><g transform="translate(71.325074, 184.199055)"><g/></g></g><g fill="#ffffff" fill-opacity="1"><g transform="translate(73.97117, 184.199055)"><g><path d="M 7.3125 -3.640625 C 7.3125 -2.484375 7.015625 -1.570312 6.421875 -0.90625 C 5.835938 -0.238281 5.019531 0.09375 3.96875 0.09375 C 2.90625 0.09375 2.082031 -0.226562 1.5 -0.875 C 0.914062 -1.53125 0.625 -2.457031 0.625 -3.65625 C 0.625 -4.84375 0.914062 -5.757812 1.5 -6.40625 C 2.082031 -7.0625 2.910156 -7.390625 3.984375 -7.390625 C 5.023438 -7.390625 5.835938 -7.054688 6.421875 -6.390625 C 7.015625 -5.722656 7.3125 -4.804688 7.3125 -3.640625 Z M 1.515625 -3.640625 C 1.515625 -2.660156 1.722656 -1.914062 2.140625 -1.40625 C 2.566406 -0.894531 3.175781 -0.640625 3.96875 -0.640625 C 4.78125 -0.640625 5.390625 -0.890625 5.796875 -1.390625 C 6.210938 -1.898438 6.421875 -2.648438 6.421875 -3.640625 C 6.421875 -4.617188 6.210938 -5.359375 5.796875 -5.859375 C 5.390625 -6.367188 4.785156 -6.625 3.984375 -6.625 C 3.179688 -6.625 2.566406 -6.367188 2.140625 -5.859375 C 1.722656 -5.359375 1.515625 -4.617188 1.515625 -3.640625 Z M 1.515625 -3.640625 "/></g></g></g><g fill="#ffffff" fill-opacity="1"><g transform="translate(81.904486, 184.199055)"><g><path d="M 3.328125 -4.8125 L 1.9375 -4.8125 L 1.9375 0 L 1.125 0 L 1.125 -4.8125 L 0.140625 -4.8125 L 0.140625 -5.1875 L 1.125 -5.484375 L 1.125 -5.78125 C 1.125 -7.125 1.707031 -7.796875 2.875 -7.796875 C 3.164062 -7.796875 3.503906 -7.738281 3.890625 -7.625 L 3.671875 -6.953125 C 3.359375 -7.054688 3.085938 -7.109375 2.859375 -7.109375 C 2.546875 -7.109375 2.3125 -7.003906 2.15625 -6.796875 C 2.007812 -6.585938 1.9375 -6.257812 1.9375 -5.8125 L 1.9375 -5.453125 L 3.328125 -5.453125 Z M 3.328125 -4.8125 "/></g></g></g><g fill="#ffffff" fill-opacity="1"><g transform="translate(17.168731, 198.228026)"><g><path d="M 3.234375 0 L 2.390625 0 L 2.390625 -6.515625 L 0.09375 -6.515625 L 0.09375 -7.265625 L 5.546875 -7.265625 L 5.546875 -6.515625 L 3.234375 -6.515625 Z M 3.234375 0 "/></g></g></g><g fill="#ffffff" fill-opacity="1"><g transform="translate(22.804121, 198.228026)"><g><path d="M 4.609375 0 L 4.609375 -3.53125 C 4.609375 -3.96875 4.503906 -4.296875 4.296875 -4.515625 C 4.097656 -4.734375 3.785156 -4.84375 3.359375 -4.84375 C 2.773438 -4.84375 2.351562 -4.6875 2.09375 -4.375 C 1.832031 -4.070312 1.703125 -3.5625 1.703125 -2.84375 L 1.703125 0 L 0.875 0 L 0.875 -7.734375 L 1.703125 -7.734375 L 1.703125 -5.390625 C 1.703125 -5.109375 1.6875 -4.878906 1.65625 -4.703125 L 1.71875 -4.703125 C 1.875 -4.960938 2.101562 -5.164062 2.40625 -5.3125 C 2.707031 -5.46875 3.050781 -5.546875 3.4375 -5.546875 C 4.101562 -5.546875 4.601562 -5.382812 4.9375 -5.0625 C 5.269531 -4.75 5.4375 -4.25 5.4375 -3.5625 L 5.4375 0 Z M 4.609375 0 "/></g></g></g><g fill="#ffffff" fill-opacity="1"><g transform="translate(29.05627, 198.228026)"><g><path d="M 3.171875 0.09375 C 2.367188 0.09375 1.734375 -0.148438 1.265625 -0.640625 C 0.804688 -1.128906 0.578125 -1.8125 0.578125 -2.6875 C 0.578125 -3.5625 0.789062 -4.253906 1.21875 -4.765625 C 1.65625 -5.285156 2.238281 -5.546875 2.96875 -5.546875 C 3.644531 -5.546875 4.179688 -5.320312 4.578125 -4.875 C 4.984375 -4.425781 5.1875 -3.832031 5.1875 -3.09375 L 5.1875 -2.578125 L 1.421875 -2.578125 C 1.441406 -1.929688 1.601562 -1.441406 1.90625 -1.109375 C 2.21875 -0.785156 2.648438 -0.625 3.203125 -0.625 C 3.796875 -0.625 4.378906 -0.742188 4.953125 -0.984375 L 4.953125 -0.25 C 4.660156 -0.125 4.382812 -0.0351562 4.125 0.015625 C 3.863281 0.0664062 3.546875 0.09375 3.171875 0.09375 Z M 2.953125 -4.859375 C 2.515625 -4.859375 2.164062 -4.710938 1.90625 -4.421875 C 1.644531 -4.140625 1.492188 -3.75 1.453125 -3.25 L 4.296875 -3.25 C 4.296875 -3.769531 4.175781 -4.164062 3.9375 -4.4375 C 3.707031 -4.71875 3.378906 -4.859375 2.953125 -4.859375 Z M 2.953125 -4.859375 "/></g></g></g><g fill="#ffffff" fill-opacity="1"><g transform="translate(34.771241, 198.228026)"><g/></g></g><g fill="#ffffff" fill-opacity="1"><g transform="translate(37.417338, 198.228026)"><g><path d="M 7.34375 0 L 6.515625 0 L 5.046875 -4.875 C 4.972656 -5.082031 4.894531 -5.347656 4.8125 -5.671875 C 4.726562 -6.003906 4.679688 -6.207031 4.671875 -6.28125 C 4.597656 -5.84375 4.484375 -5.363281 4.328125 -4.84375 L 2.90625 0 L 2.0625 0 L 0.140625 -7.265625 L 1.03125 -7.265625 L 2.171875 -2.78125 C 2.335938 -2.144531 2.457031 -1.570312 2.53125 -1.0625 C 2.613281 -1.675781 2.742188 -2.269531 2.921875 -2.84375 L 4.234375 -7.265625 L 5.125 -7.265625 L 6.484375 -2.8125 C 6.648438 -2.300781 6.785156 -1.71875 6.890625 -1.0625 C 6.953125 -1.539062 7.070312 -2.117188 7.25 -2.796875 L 8.390625 -7.265625 L 9.296875 -7.265625 Z M 7.34375 0 "/></g></g></g><g fill="#ffffff" fill-opacity="1"><g transform="translate(46.847787, 198.228026)"><g><path d="M 3.171875 0.09375 C 2.367188 0.09375 1.734375 -0.148438 1.265625 -0.640625 C 0.804688 -1.128906 0.578125 -1.8125 0.578125 -2.6875 C 0.578125 -3.5625 0.789062 -4.253906 1.21875 -4.765625 C 1.65625 -5.285156 2.238281 -5.546875 2.96875 -5.546875 C 3.644531 -5.546875 4.179688 -5.320312 4.578125 -4.875 C 4.984375 -4.425781 5.1875 -3.832031 5.1875 -3.09375 L 5.1875 -2.578125 L 1.421875 -2.578125 C 1.441406 -1.929688 1.601562 -1.441406 1.90625 -1.109375 C 2.21875 -0.785156 2.648438 -0.625 3.203125 -0.625 C 3.796875 -0.625 4.378906 -0.742188 4.953125 -0.984375 L 4.953125 -0.25 C 4.660156 -0.125 4.382812 -0.0351562 4.125 0.015625 C 3.863281 0.0664062 3.546875 0.09375 3.171875 0.09375 Z M 2.953125 -4.859375 C 2.515625 -4.859375 2.164062 -4.710938 1.90625 -4.421875 C 1.644531 -4.140625 1.492188 -3.75 1.453125 -3.25 L 4.296875 -3.25 C 4.296875 -3.769531 4.175781 -4.164062 3.9375 -4.4375 C 3.707031 -4.71875 3.378906 -4.859375 2.953125 -4.859375 Z M 2.953125 -4.859375 "/></g></g></g><g fill="#ffffff" fill-opacity="1"><g transform="translate(52.562759, 198.228026)"><g><path d="M 3.40625 -5.546875 C 4.125 -5.546875 4.679688 -5.300781 5.078125 -4.8125 C 5.472656 -4.320312 5.671875 -3.628906 5.671875 -2.734375 C 5.671875 -1.835938 5.472656 -1.140625 5.078125 -0.640625 C 4.679688 -0.148438 4.125 0.09375 3.40625 0.09375 C 3.050781 0.09375 2.726562 0.03125 2.4375 -0.09375 C 2.144531 -0.226562 1.898438 -0.429688 1.703125 -0.703125 L 1.640625 -0.703125 L 1.46875 0 L 0.875 0 L 0.875 -7.734375 L 1.703125 -7.734375 L 1.703125 -5.859375 C 1.703125 -5.441406 1.6875 -5.0625 1.65625 -4.71875 L 1.703125 -4.71875 C 2.085938 -5.269531 2.65625 -5.546875 3.40625 -5.546875 Z M 3.296875 -4.84375 C 2.734375 -4.84375 2.328125 -4.679688 2.078125 -4.359375 C 1.828125 -4.035156 1.703125 -3.492188 1.703125 -2.734375 C 1.703125 -1.960938 1.828125 -1.410156 2.078125 -1.078125 C 2.335938 -0.753906 2.75 -0.59375 3.3125 -0.59375 C 3.820312 -0.59375 4.195312 -0.773438 4.4375 -1.140625 C 4.6875 -1.515625 4.8125 -2.046875 4.8125 -2.734375 C 4.8125 -3.453125 4.6875 -3.984375 4.4375 -4.328125 C 4.195312 -4.671875 3.816406 -4.84375 3.296875 -4.84375 Z M 3.296875 -4.84375 "/></g></g></g><g fill="#ffffff" fill-opacity="1"><g transform="translate(58.80496, 198.228026)"><g><path d="M 4.390625 -1.484375 C 4.390625 -0.972656 4.203125 -0.582031 3.828125 -0.3125 C 3.453125 -0.0390625 2.921875 0.09375 2.234375 0.09375 C 1.515625 0.09375 0.953125 -0.0195312 0.546875 -0.25 L 0.546875 -1.015625 C 0.804688 -0.878906 1.082031 -0.769531 1.375 -0.6875 C 1.675781 -0.613281 1.96875 -0.578125 2.25 -0.578125 C 2.6875 -0.578125 3.019531 -0.644531 3.25 -0.78125 C 3.476562 -0.925781 3.59375 -1.140625 3.59375 -1.421875 C 3.59375 -1.628906 3.5 -1.804688 3.3125 -1.953125 C 3.132812 -2.109375 2.78125 -2.289062 2.25 -2.5 C 1.738281 -2.6875 1.375 -2.847656 1.15625 -2.984375 C 0.945312 -3.128906 0.789062 -3.289062 0.6875 -3.46875 C 0.582031 -3.644531 0.53125 -3.859375 0.53125 -4.109375 C 0.53125 -4.554688 0.707031 -4.90625 1.0625 -5.15625 C 1.425781 -5.414062 1.925781 -5.546875 2.5625 -5.546875 C 3.144531 -5.546875 3.71875 -5.425781 4.28125 -5.1875 L 3.984375 -4.515625 C 3.429688 -4.742188 2.9375 -4.859375 2.5 -4.859375 C 2.101562 -4.859375 1.804688 -4.796875 1.609375 -4.671875 C 1.410156 -4.546875 1.3125 -4.378906 1.3125 -4.171875 C 1.3125 -4.023438 1.347656 -3.898438 1.421875 -3.796875 C 1.492188 -3.691406 1.613281 -3.59375 1.78125 -3.5 C 1.945312 -3.40625 2.265625 -3.269531 2.734375 -3.09375 C 3.378906 -2.863281 3.816406 -2.628906 4.046875 -2.390625 C 4.273438 -2.148438 4.390625 -1.847656 4.390625 -1.484375 Z M 4.390625 -1.484375 "/></g></g></g><g fill="#ffffff" fill-opacity="1"><g transform="translate(63.664427, 198.228026)"><g><path d="M 1.703125 0 L 0.875 0 L 0.875 -5.453125 L 1.703125 -5.453125 Z M 0.8125 -6.921875 C 0.8125 -7.117188 0.851562 -7.257812 0.9375 -7.34375 C 1.03125 -7.425781 1.148438 -7.46875 1.296875 -7.46875 C 1.429688 -7.46875 1.546875 -7.421875 1.640625 -7.328125 C 1.734375 -7.242188 1.78125 -7.109375 1.78125 -6.921875 C 1.78125 -6.742188 1.734375 -6.609375 1.640625 -6.515625 C 1.546875 -6.421875 1.429688 -6.375 1.296875 -6.375 C 1.148438 -6.375 1.03125 -6.421875 0.9375 -6.515625 C 0.851562 -6.609375 0.8125 -6.742188 0.8125 -6.921875 Z M 0.8125 -6.921875 "/></g></g></g><g fill="#ffffff" fill-opacity="1"><g transform="translate(66.240889, 198.228026)"><g><path d="M 2.640625 -0.578125 C 2.785156 -0.578125 2.925781 -0.585938 3.0625 -0.609375 C 3.195312 -0.628906 3.300781 -0.65625 3.375 -0.6875 L 3.375 -0.046875 C 3.289062 -0.00390625 3.160156 0.0234375 2.984375 0.046875 C 2.804688 0.078125 2.648438 0.09375 2.515625 0.09375 C 1.460938 0.09375 0.9375 -0.457031 0.9375 -1.5625 L 0.9375 -4.8125 L 0.15625 -4.8125 L 0.15625 -5.203125 L 0.9375 -5.546875 L 1.28125 -6.71875 L 1.765625 -6.71875 L 1.765625 -5.453125 L 3.34375 -5.453125 L 3.34375 -4.8125 L 1.765625 -4.8125 L 1.765625 -1.609375 C 1.765625 -1.273438 1.84375 -1.019531 2 -0.84375 C 2.15625 -0.664062 2.367188 -0.578125 2.640625 -0.578125 Z M 2.640625 -0.578125 "/></g></g></g><g fill="#ffffff" fill-opacity="1"><g transform="translate(69.836994, 198.228026)"><g><path d="M 3.171875 0.09375 C 2.367188 0.09375 1.734375 -0.148438 1.265625 -0.640625 C 0.804688 -1.128906 0.578125 -1.8125 0.578125 -2.6875 C 0.578125 -3.5625 0.789062 -4.253906 1.21875 -4.765625 C 1.65625 -5.285156 2.238281 -5.546875 2.96875 -5.546875 C 3.644531 -5.546875 4.179688 -5.320312 4.578125 -4.875 C 4.984375 -4.425781 5.1875 -3.832031 5.1875 -3.09375 L 5.1875 -2.578125 L 1.421875 -2.578125 C 1.441406 -1.929688 1.601562 -1.441406 1.90625 -1.109375 C 2.21875 -0.785156 2.648438 -0.625 3.203125 -0.625 C 3.796875 -0.625 4.378906 -0.742188 4.953125 -0.984375 L 4.953125 -0.25 C 4.660156 -0.125 4.382812 -0.0351562 4.125 0.015625 C 3.863281 0.0664062 3.546875 0.09375 3.171875 0.09375 Z M 2.953125 -4.859375 C 2.515625 -4.859375 2.164062 -4.710938 1.90625 -4.421875 C 1.644531 -4.140625 1.492188 -3.75 1.453125 -3.25 L 4.296875 -3.25 C 4.296875 -3.769531 4.175781 -4.164062 3.9375 -4.4375 C 3.707031 -4.71875 3.378906 -4.859375 2.953125 -4.859375 Z M 2.953125 -4.859375 "/></g></g></g><g fill="#000000" fill-opacity="1"><g transform="translate(353.808594, 210.469722)"><g/></g></g><g fill="#ffffff" fill-opacity="1"><g transform="translate(303.098223, 183.871155)"><g><path d="M 3.21875 -1.75 C 3.21875 -1.1875 3.0625 -0.753906 2.75 -0.453125 C 2.445312 -0.148438 2.003906 0 1.421875 0 L 0.46875 0 L 0.46875 -3.453125 L 1.53125 -3.453125 C 2.0625 -3.453125 2.472656 -3.300781 2.765625 -3 C 3.066406 -2.707031 3.21875 -2.289062 3.21875 -1.75 Z M 2.796875 -1.734375 C 2.796875 -2.191406 2.679688 -2.53125 2.453125 -2.75 C 2.234375 -2.976562 1.898438 -3.09375 1.453125 -3.09375 L 0.875 -3.09375 L 0.875 -0.34375 L 1.359375 -0.34375 C 1.835938 -0.34375 2.195312 -0.457031 2.4375 -0.6875 C 2.675781 -0.925781 2.796875 -1.273438 2.796875 -1.734375 Z M 2.796875 -1.734375 "/></g></g></g><g fill="#ffffff" fill-opacity="1"><g transform="translate(306.613317, 183.871155)"><g><path d="M 1.5 0.046875 C 1.125 0.046875 0.820312 -0.0664062 0.59375 -0.296875 C 0.375 -0.535156 0.265625 -0.859375 0.265625 -1.265625 C 0.265625 -1.679688 0.367188 -2.007812 0.578125 -2.25 C 0.785156 -2.5 1.0625 -2.625 1.40625 -2.625 C 1.726562 -2.625 1.984375 -2.515625 2.171875 -2.296875 C 2.359375 -2.085938 2.453125 -1.8125 2.453125 -1.46875 L 2.453125 -1.21875 L 0.671875 -1.21875 C 0.679688 -0.914062 0.757812 -0.6875 0.90625 -0.53125 C 1.050781 -0.375 1.253906 -0.296875 1.515625 -0.296875 C 1.796875 -0.296875 2.070312 -0.351562 2.34375 -0.46875 L 2.34375 -0.125 C 2.207031 -0.0625 2.078125 -0.0195312 1.953125 0 C 1.828125 0.03125 1.675781 0.046875 1.5 0.046875 Z M 1.40625 -2.296875 C 1.195312 -2.296875 1.03125 -2.226562 0.90625 -2.09375 C 0.78125 -1.957031 0.707031 -1.773438 0.6875 -1.546875 L 2.03125 -1.546875 C 2.03125 -1.785156 1.972656 -1.96875 1.859375 -2.09375 C 1.753906 -2.226562 1.601562 -2.296875 1.40625 -2.296875 Z M 1.40625 -2.296875 "/></g></g></g><g fill="#ffffff" fill-opacity="1"><g transform="translate(309.318503, 183.871155)"><g><path d="M 0.984375 0 L 0 -2.578125 L 0.421875 -2.578125 L 0.96875 -1.046875 C 1.101562 -0.691406 1.179688 -0.460938 1.203125 -0.359375 L 1.21875 -0.359375 C 1.238281 -0.441406 1.289062 -0.613281 1.375 -0.875 C 1.46875 -1.132812 1.675781 -1.703125 2 -2.578125 L 2.421875 -2.578125 L 1.4375 0 Z M 0.984375 0 "/></g></g></g><g fill="#ffffff" fill-opacity="1"><g transform="translate(311.7341, 183.871155)"><g><path d="M 1.5 0.046875 C 1.125 0.046875 0.820312 -0.0664062 0.59375 -0.296875 C 0.375 -0.535156 0.265625 -0.859375 0.265625 -1.265625 C 0.265625 -1.679688 0.367188 -2.007812 0.578125 -2.25 C 0.785156 -2.5 1.0625 -2.625 1.40625 -2.625 C 1.726562 -2.625 1.984375 -2.515625 2.171875 -2.296875 C 2.359375 -2.085938 2.453125 -1.8125 2.453125 -1.46875 L 2.453125 -1.21875 L 0.671875 -1.21875 C 0.679688 -0.914062 0.757812 -0.6875 0.90625 -0.53125 C 1.050781 -0.375 1.253906 -0.296875 1.515625 -0.296875 C 1.796875 -0.296875 2.070312 -0.351562 2.34375 -0.46875 L 2.34375 -0.125 C 2.207031 -0.0625 2.078125 -0.0195312 1.953125 0 C 1.828125 0.03125 1.675781 0.046875 1.5 0.046875 Z M 1.40625 -2.296875 C 1.195312 -2.296875 1.03125 -2.226562 0.90625 -2.09375 C 0.78125 -1.957031 0.707031 -1.773438 0.6875 -1.546875 L 2.03125 -1.546875 C 2.03125 -1.785156 1.972656 -1.96875 1.859375 -2.09375 C 1.753906 -2.226562 1.601562 -2.296875 1.40625 -2.296875 Z M 1.40625 -2.296875 "/></g></g></g><g fill="#ffffff" fill-opacity="1"><g transform="translate(314.439287, 183.871155)"><g><path d="M 0.8125 0 L 0.421875 0 L 0.421875 -3.671875 L 0.8125 -3.671875 Z M 0.8125 0 "/></g></g></g><g fill="#ffffff" fill-opacity="1"><g transform="translate(315.658857, 183.871155)"><g><path d="M 2.640625 -1.296875 C 2.640625 -0.867188 2.535156 -0.535156 2.328125 -0.296875 C 2.117188 -0.0664062 1.828125 0.046875 1.453125 0.046875 C 1.210938 0.046875 1.003906 -0.00390625 0.828125 -0.109375 C 0.648438 -0.222656 0.507812 -0.378906 0.40625 -0.578125 C 0.3125 -0.785156 0.265625 -1.023438 0.265625 -1.296875 C 0.265625 -1.710938 0.367188 -2.035156 0.578125 -2.265625 C 0.796875 -2.503906 1.09375 -2.625 1.46875 -2.625 C 1.820312 -2.625 2.101562 -2.503906 2.3125 -2.265625 C 2.53125 -2.023438 2.640625 -1.703125 2.640625 -1.296875 Z M 0.671875 -1.296875 C 0.671875 -0.960938 0.738281 -0.707031 0.875 -0.53125 C 1.007812 -0.363281 1.203125 -0.28125 1.453125 -0.28125 C 1.710938 -0.28125 1.90625 -0.363281 2.03125 -0.53125 C 2.164062 -0.707031 2.234375 -0.960938 2.234375 -1.296875 C 2.234375 -1.617188 2.164062 -1.863281 2.03125 -2.03125 C 1.90625 -2.207031 1.710938 -2.296875 1.453125 -2.296875 C 1.191406 -2.296875 0.992188 -2.210938 0.859375 -2.046875 C 0.734375 -1.878906 0.671875 -1.628906 0.671875 -1.296875 Z M 0.671875 -1.296875 "/></g></g></g><g fill="#ffffff" fill-opacity="1"><g transform="translate(318.571229, 183.871155)"><g><path d="M 1.625 0.046875 C 1.445312 0.046875 1.289062 0.015625 1.15625 -0.046875 C 1.019531 -0.109375 0.90625 -0.203125 0.8125 -0.328125 L 0.78125 -0.328125 C 0.800781 -0.179688 0.8125 -0.0390625 0.8125 0.09375 L 0.8125 1.15625 L 0.421875 1.15625 L 0.421875 -2.578125 L 0.734375 -2.578125 L 0.78125 -2.234375 L 0.8125 -2.234375 C 0.90625 -2.367188 1.019531 -2.46875 1.15625 -2.53125 C 1.289062 -2.59375 1.445312 -2.625 1.625 -2.625 C 1.957031 -2.625 2.21875 -2.503906 2.40625 -2.265625 C 2.59375 -2.035156 2.6875 -1.710938 2.6875 -1.296875 C 2.6875 -0.867188 2.59375 -0.535156 2.40625 -0.296875 C 2.21875 -0.0664062 1.957031 0.046875 1.625 0.046875 Z M 1.5625 -2.296875 C 1.300781 -2.296875 1.109375 -2.222656 0.984375 -2.078125 C 0.867188 -1.929688 0.8125 -1.695312 0.8125 -1.375 L 0.8125 -1.296875 C 0.8125 -0.929688 0.867188 -0.671875 0.984375 -0.515625 C 1.109375 -0.359375 1.300781 -0.28125 1.5625 -0.28125 C 1.789062 -0.28125 1.96875 -0.367188 2.09375 -0.546875 C 2.21875 -0.734375 2.28125 -0.984375 2.28125 -1.296875 C 2.28125 -1.617188 2.21875 -1.863281 2.09375 -2.03125 C 1.96875 -2.207031 1.789062 -2.296875 1.5625 -2.296875 Z M 1.5625 -2.296875 "/></g></g></g><g fill="#ffffff" fill-opacity="1"><g transform="translate(321.52598, 183.871155)"><g><path d="M 3.703125 0 L 3.703125 -1.6875 C 3.703125 -1.882812 3.65625 -2.035156 3.5625 -2.140625 C 3.476562 -2.242188 3.347656 -2.296875 3.171875 -2.296875 C 2.921875 -2.296875 2.738281 -2.222656 2.625 -2.078125 C 2.507812 -1.941406 2.453125 -1.726562 2.453125 -1.4375 L 2.453125 0 L 2.0625 0 L 2.0625 -1.6875 C 2.0625 -1.882812 2.015625 -2.035156 1.921875 -2.140625 C 1.835938 -2.242188 1.703125 -2.296875 1.515625 -2.296875 C 1.265625 -2.296875 1.082031 -2.222656 0.96875 -2.078125 C 0.863281 -1.929688 0.8125 -1.691406 0.8125 -1.359375 L 0.8125 0 L 0.421875 0 L 0.421875 -2.578125 L 0.734375 -2.578125 L 0.796875 -2.234375 L 0.8125 -2.234375 C 0.882812 -2.359375 0.988281 -2.453125 1.125 -2.515625 C 1.257812 -2.585938 1.410156 -2.625 1.578125 -2.625 C 1.984375 -2.625 2.25 -2.476562 2.375 -2.1875 L 2.390625 -2.1875 C 2.460938 -2.320312 2.570312 -2.425781 2.71875 -2.5 C 2.863281 -2.582031 3.03125 -2.625 3.21875 -2.625 C 3.507812 -2.625 3.726562 -2.550781 3.875 -2.40625 C 4.019531 -2.257812 4.09375 -2.019531 4.09375 -1.6875 L 4.09375 0 Z M 3.703125 0 "/></g></g></g><g fill="#ffffff" fill-opacity="1"><g transform="translate(326.01108, 183.871155)"><g><path d="M 1.5 0.046875 C 1.125 0.046875 0.820312 -0.0664062 0.59375 -0.296875 C 0.375 -0.535156 0.265625 -0.859375 0.265625 -1.265625 C 0.265625 -1.679688 0.367188 -2.007812 0.578125 -2.25 C 0.785156 -2.5 1.0625 -2.625 1.40625 -2.625 C 1.726562 -2.625 1.984375 -2.515625 2.171875 -2.296875 C 2.359375 -2.085938 2.453125 -1.8125 2.453125 -1.46875 L 2.453125 -1.21875 L 0.671875 -1.21875 C 0.679688 -0.914062 0.757812 -0.6875 0.90625 -0.53125 C 1.050781 -0.375 1.253906 -0.296875 1.515625 -0.296875 C 1.796875 -0.296875 2.070312 -0.351562 2.34375 -0.46875 L 2.34375 -0.125 C 2.207031 -0.0625 2.078125 -0.0195312 1.953125 0 C 1.828125 0.03125 1.675781 0.046875 1.5 0.046875 Z M 1.40625 -2.296875 C 1.195312 -2.296875 1.03125 -2.226562 0.90625 -2.09375 C 0.78125 -1.957031 0.707031 -1.773438 0.6875 -1.546875 L 2.03125 -1.546875 C 2.03125 -1.785156 1.972656 -1.96875 1.859375 -2.09375 C 1.753906 -2.226562 1.601562 -2.296875 1.40625 -2.296875 Z M 1.40625 -2.296875 "/></g></g></g><g fill="#ffffff" fill-opacity="1"><g transform="translate(328.716267, 183.871155)"><g><path d="M 2.1875 0 L 2.1875 -1.671875 C 2.1875 -1.878906 2.132812 -2.035156 2.03125 -2.140625 C 1.9375 -2.242188 1.789062 -2.296875 1.59375 -2.296875 C 1.320312 -2.296875 1.125 -2.222656 1 -2.078125 C 0.875 -1.929688 0.8125 -1.691406 0.8125 -1.359375 L 0.8125 0 L 0.421875 0 L 0.421875 -2.578125 L 0.734375 -2.578125 L 0.796875 -2.234375 L 0.8125 -2.234375 C 0.894531 -2.359375 1.007812 -2.453125 1.15625 -2.515625 C 1.300781 -2.585938 1.460938 -2.625 1.640625 -2.625 C 1.953125 -2.625 2.1875 -2.550781 2.34375 -2.40625 C 2.5 -2.257812 2.578125 -2.019531 2.578125 -1.6875 L 2.578125 0 Z M 2.1875 0 "/></g></g></g><g fill="#ffffff" fill-opacity="1"><g transform="translate(331.675726, 183.871155)"><g><path d="M 1.25 -0.28125 C 1.320312 -0.28125 1.390625 -0.285156 1.453125 -0.296875 C 1.515625 -0.304688 1.566406 -0.316406 1.609375 -0.328125 L 1.609375 -0.03125 C 1.566406 -0.0078125 1.503906 0.00390625 1.421875 0.015625 C 1.335938 0.0351562 1.257812 0.046875 1.1875 0.046875 C 0.6875 0.046875 0.4375 -0.21875 0.4375 -0.75 L 0.4375 -2.28125 L 0.078125 -2.28125 L 0.078125 -2.46875 L 0.4375 -2.625 L 0.609375 -3.1875 L 0.828125 -3.1875 L 0.828125 -2.578125 L 1.578125 -2.578125 L 1.578125 -2.28125 L 0.828125 -2.28125 L 0.828125 -0.765625 C 0.828125 -0.609375 0.863281 -0.488281 0.9375 -0.40625 C 1.019531 -0.320312 1.125 -0.28125 1.25 -0.28125 Z M 1.25 -0.28125 "/></g></g></g><g fill="#ffffff" fill-opacity="1"><g transform="translate(333.377946, 183.871155)"><g/></g></g><g fill="#ffffff" fill-opacity="1"><g transform="translate(334.630477, 183.871155)"><g><path d="M 3.46875 -1.734375 C 3.46875 -1.179688 3.328125 -0.742188 3.046875 -0.421875 C 2.765625 -0.109375 2.378906 0.046875 1.890625 0.046875 C 1.378906 0.046875 0.984375 -0.109375 0.703125 -0.421875 C 0.429688 -0.734375 0.296875 -1.171875 0.296875 -1.734375 C 0.296875 -2.296875 0.429688 -2.726562 0.703125 -3.03125 C 0.984375 -3.34375 1.378906 -3.5 1.890625 -3.5 C 2.378906 -3.5 2.765625 -3.34375 3.046875 -3.03125 C 3.328125 -2.71875 3.46875 -2.285156 3.46875 -1.734375 Z M 0.71875 -1.734375 C 0.71875 -1.265625 0.816406 -0.90625 1.015625 -0.65625 C 1.210938 -0.414062 1.503906 -0.296875 1.890625 -0.296875 C 2.265625 -0.296875 2.550781 -0.414062 2.75 -0.65625 C 2.945312 -0.90625 3.046875 -1.265625 3.046875 -1.734375 C 3.046875 -2.191406 2.945312 -2.539062 2.75 -2.78125 C 2.550781 -3.019531 2.265625 -3.140625 1.890625 -3.140625 C 1.503906 -3.140625 1.210938 -3.019531 1.015625 -2.78125 C 0.816406 -2.539062 0.71875 -2.191406 0.71875 -1.734375 Z M 0.71875 -1.734375 "/></g></g></g><g fill="#ffffff" fill-opacity="1"><g transform="translate(338.385719, 183.871155)"><g><path d="M 1.578125 -2.28125 L 0.921875 -2.28125 L 0.921875 0 L 0.53125 0 L 0.53125 -2.28125 L 0.0625 -2.28125 L 0.0625 -2.453125 L 0.53125 -2.59375 L 0.53125 -2.734375 C 0.53125 -3.367188 0.804688 -3.6875 1.359375 -3.6875 C 1.492188 -3.6875 1.65625 -3.660156 1.84375 -3.609375 L 1.734375 -3.296875 C 1.585938 -3.347656 1.460938 -3.375 1.359375 -3.375 C 1.210938 -3.375 1.101562 -3.320312 1.03125 -3.21875 C 0.957031 -3.125 0.921875 -2.96875 0.921875 -2.75 L 0.921875 -2.578125 L 1.578125 -2.578125 Z M 1.578125 -2.28125 "/></g></g></g><g fill="#ffffff" fill-opacity="1"><g transform="translate(307.742998, 190.51178)"><g><path d="M 1.53125 0 L 1.140625 0 L 1.140625 -3.09375 L 0.046875 -3.09375 L 0.046875 -3.453125 L 2.625 -3.453125 L 2.625 -3.09375 L 1.53125 -3.09375 Z M 1.53125 0 "/></g></g></g><g fill="#ffffff" fill-opacity="1"><g transform="translate(310.410514, 190.51178)"><g><path d="M 2.1875 0 L 2.1875 -1.671875 C 2.1875 -1.878906 2.132812 -2.035156 2.03125 -2.140625 C 1.9375 -2.242188 1.789062 -2.296875 1.59375 -2.296875 C 1.320312 -2.296875 1.125 -2.222656 1 -2.078125 C 0.875 -1.929688 0.8125 -1.6875 0.8125 -1.34375 L 0.8125 0 L 0.421875 0 L 0.421875 -3.671875 L 0.8125 -3.671875 L 0.8125 -2.5625 C 0.8125 -2.425781 0.800781 -2.3125 0.78125 -2.21875 L 0.8125 -2.21875 C 0.882812 -2.34375 0.992188 -2.441406 1.140625 -2.515625 C 1.285156 -2.585938 1.445312 -2.625 1.625 -2.625 C 1.9375 -2.625 2.171875 -2.546875 2.328125 -2.390625 C 2.492188 -2.242188 2.578125 -2.007812 2.578125 -1.6875 L 2.578125 0 Z M 2.1875 0 "/></g></g></g><g fill="#ffffff" fill-opacity="1"><g transform="translate(313.369973, 190.51178)"><g><path d="M 1.5 0.046875 C 1.125 0.046875 0.820312 -0.0664062 0.59375 -0.296875 C 0.375 -0.535156 0.265625 -0.859375 0.265625 -1.265625 C 0.265625 -1.679688 0.367188 -2.007812 0.578125 -2.25 C 0.785156 -2.5 1.0625 -2.625 1.40625 -2.625 C 1.726562 -2.625 1.984375 -2.515625 2.171875 -2.296875 C 2.359375 -2.085938 2.453125 -1.8125 2.453125 -1.46875 L 2.453125 -1.21875 L 0.671875 -1.21875 C 0.679688 -0.914062 0.757812 -0.6875 0.90625 -0.53125 C 1.050781 -0.375 1.253906 -0.296875 1.515625 -0.296875 C 1.796875 -0.296875 2.070312 -0.351562 2.34375 -0.46875 L 2.34375 -0.125 C 2.207031 -0.0625 2.078125 -0.0195312 1.953125 0 C 1.828125 0.03125 1.675781 0.046875 1.5 0.046875 Z M 1.40625 -2.296875 C 1.195312 -2.296875 1.03125 -2.226562 0.90625 -2.09375 C 0.78125 -1.957031 0.707031 -1.773438 0.6875 -1.546875 L 2.03125 -1.546875 C 2.03125 -1.785156 1.972656 -1.96875 1.859375 -2.09375 C 1.753906 -2.226562 1.601562 -2.296875 1.40625 -2.296875 Z M 1.40625 -2.296875 "/></g></g></g><g fill="#ffffff" fill-opacity="1"><g transform="translate(316.07516, 190.51178)"><g/></g></g><g fill="#ffffff" fill-opacity="1"><g transform="translate(317.327692, 190.51178)"><g><path d="M 3.484375 0 L 3.09375 0 L 2.390625 -2.3125 C 2.359375 -2.414062 2.320312 -2.539062 2.28125 -2.6875 C 2.238281 -2.84375 2.21875 -2.9375 2.21875 -2.96875 C 2.1875 -2.757812 2.128906 -2.535156 2.046875 -2.296875 L 1.375 0 L 0.984375 0 L 0.0625 -3.453125 L 0.484375 -3.453125 L 1.03125 -1.3125 C 1.101562 -1.019531 1.160156 -0.75 1.203125 -0.5 C 1.242188 -0.789062 1.304688 -1.070312 1.390625 -1.34375 L 2 -3.453125 L 2.421875 -3.453125 L 3.078125 -1.328125 C 3.148438 -1.085938 3.210938 -0.8125 3.265625 -0.5 C 3.296875 -0.726562 3.351562 -1.003906 3.4375 -1.328125 L 3.984375 -3.453125 L 4.40625 -3.453125 Z M 3.484375 0 "/></g></g></g><g fill="#ffffff" fill-opacity="1"><g transform="translate(321.791602, 190.51178)"><g><path d="M 1.5 0.046875 C 1.125 0.046875 0.820312 -0.0664062 0.59375 -0.296875 C 0.375 -0.535156 0.265625 -0.859375 0.265625 -1.265625 C 0.265625 -1.679688 0.367188 -2.007812 0.578125 -2.25 C 0.785156 -2.5 1.0625 -2.625 1.40625 -2.625 C 1.726562 -2.625 1.984375 -2.515625 2.171875 -2.296875 C 2.359375 -2.085938 2.453125 -1.8125 2.453125 -1.46875 L 2.453125 -1.21875 L 0.671875 -1.21875 C 0.679688 -0.914062 0.757812 -0.6875 0.90625 -0.53125 C 1.050781 -0.375 1.253906 -0.296875 1.515625 -0.296875 C 1.796875 -0.296875 2.070312 -0.351562 2.34375 -0.46875 L 2.34375 -0.125 C 2.207031 -0.0625 2.078125 -0.0195312 1.953125 0 C 1.828125 0.03125 1.675781 0.046875 1.5 0.046875 Z M 1.40625 -2.296875 C 1.195312 -2.296875 1.03125 -2.226562 0.90625 -2.09375 C 0.78125 -1.957031 0.707031 -1.773438 0.6875 -1.546875 L 2.03125 -1.546875 C 2.03125 -1.785156 1.972656 -1.96875 1.859375 -2.09375 C 1.753906 -2.226562 1.601562 -2.296875 1.40625 -2.296875 Z M 1.40625 -2.296875 "/></g></g></g><g fill="#ffffff" fill-opacity="1"><g transform="translate(324.496789, 190.51178)"><g><path d="M 1.625 -2.625 C 1.957031 -2.625 2.21875 -2.507812 2.40625 -2.28125 C 2.59375 -2.050781 2.6875 -1.722656 2.6875 -1.296875 C 2.6875 -0.867188 2.59375 -0.535156 2.40625 -0.296875 C 2.21875 -0.0664062 1.957031 0.046875 1.625 0.046875 C 1.445312 0.046875 1.289062 0.015625 1.15625 -0.046875 C 1.019531 -0.109375 0.90625 -0.203125 0.8125 -0.328125 L 0.78125 -0.328125 L 0.703125 0 L 0.421875 0 L 0.421875 -3.671875 L 0.8125 -3.671875 L 0.8125 -2.78125 C 0.8125 -2.582031 0.800781 -2.398438 0.78125 -2.234375 L 0.8125 -2.234375 C 0.988281 -2.492188 1.257812 -2.625 1.625 -2.625 Z M 1.5625 -2.296875 C 1.289062 -2.296875 1.097656 -2.21875 0.984375 -2.0625 C 0.867188 -1.914062 0.8125 -1.660156 0.8125 -1.296875 C 0.8125 -0.929688 0.867188 -0.671875 0.984375 -0.515625 C 1.109375 -0.359375 1.300781 -0.28125 1.5625 -0.28125 C 1.8125 -0.28125 1.992188 -0.367188 2.109375 -0.546875 C 2.222656 -0.722656 2.28125 -0.972656 2.28125 -1.296875 C 2.28125 -1.628906 2.222656 -1.878906 2.109375 -2.046875 C 1.992188 -2.210938 1.8125 -2.296875 1.5625 -2.296875 Z M 1.5625 -2.296875 "/></g></g></g><g fill="#ffffff" fill-opacity="1"><g transform="translate(327.45154, 190.51178)"><g><path d="M 2.078125 -0.703125 C 2.078125 -0.460938 1.988281 -0.273438 1.8125 -0.140625 C 1.632812 -0.015625 1.382812 0.046875 1.0625 0.046875 C 0.71875 0.046875 0.445312 -0.00390625 0.25 -0.109375 L 0.25 -0.484375 C 0.375 -0.421875 0.507812 -0.367188 0.65625 -0.328125 C 0.800781 -0.296875 0.9375 -0.28125 1.0625 -0.28125 C 1.269531 -0.28125 1.425781 -0.3125 1.53125 -0.375 C 1.644531 -0.4375 1.703125 -0.535156 1.703125 -0.671875 C 1.703125 -0.773438 1.65625 -0.859375 1.5625 -0.921875 C 1.476562 -0.992188 1.3125 -1.082031 1.0625 -1.1875 C 0.820312 -1.269531 0.648438 -1.34375 0.546875 -1.40625 C 0.441406 -1.476562 0.363281 -1.554688 0.3125 -1.640625 C 0.269531 -1.722656 0.25 -1.828125 0.25 -1.953125 C 0.25 -2.160156 0.332031 -2.320312 0.5 -2.4375 C 0.675781 -2.5625 0.914062 -2.625 1.21875 -2.625 C 1.488281 -2.625 1.757812 -2.570312 2.03125 -2.46875 L 1.890625 -2.140625 C 1.628906 -2.242188 1.394531 -2.296875 1.1875 -2.296875 C 1 -2.296875 0.859375 -2.265625 0.765625 -2.203125 C 0.671875 -2.148438 0.625 -2.070312 0.625 -1.96875 C 0.625 -1.90625 0.640625 -1.847656 0.671875 -1.796875 C 0.710938 -1.742188 0.769531 -1.695312 0.84375 -1.65625 C 0.925781 -1.613281 1.078125 -1.550781 1.296875 -1.46875 C 1.609375 -1.351562 1.816406 -1.238281 1.921875 -1.125 C 2.023438 -1.019531 2.078125 -0.878906 2.078125 -0.703125 Z M 2.078125 -0.703125 "/></g></g></g><g fill="#ffffff" fill-opacity="1"><g transform="translate(329.751772, 190.51178)"><g><path d="M 0.8125 0 L 0.421875 0 L 0.421875 -2.578125 L 0.8125 -2.578125 Z M 0.375 -3.28125 C 0.375 -3.375 0.394531 -3.441406 0.4375 -3.484375 C 0.488281 -3.523438 0.546875 -3.546875 0.609375 -3.546875 C 0.671875 -3.546875 0.722656 -3.523438 0.765625 -3.484375 C 0.816406 -3.441406 0.84375 -3.375 0.84375 -3.28125 C 0.84375 -3.195312 0.816406 -3.128906 0.765625 -3.078125 C 0.722656 -3.035156 0.671875 -3.015625 0.609375 -3.015625 C 0.546875 -3.015625 0.488281 -3.035156 0.4375 -3.078125 C 0.394531 -3.128906 0.375 -3.195312 0.375 -3.28125 Z M 0.375 -3.28125 "/></g></g></g><g fill="#ffffff" fill-opacity="1"><g transform="translate(330.971343, 190.51178)"><g><path d="M 1.25 -0.28125 C 1.320312 -0.28125 1.390625 -0.285156 1.453125 -0.296875 C 1.515625 -0.304688 1.566406 -0.316406 1.609375 -0.328125 L 1.609375 -0.03125 C 1.566406 -0.0078125 1.503906 0.00390625 1.421875 0.015625 C 1.335938 0.0351562 1.257812 0.046875 1.1875 0.046875 C 0.6875 0.046875 0.4375 -0.21875 0.4375 -0.75 L 0.4375 -2.28125 L 0.078125 -2.28125 L 0.078125 -2.46875 L 0.4375 -2.625 L 0.609375 -3.1875 L 0.828125 -3.1875 L 0.828125 -2.578125 L 1.578125 -2.578125 L 1.578125 -2.28125 L 0.828125 -2.28125 L 0.828125 -0.765625 C 0.828125 -0.609375 0.863281 -0.488281 0.9375 -0.40625 C 1.019531 -0.320312 1.125 -0.28125 1.25 -0.28125 Z M 1.25 -0.28125 "/></g></g></g><g fill="#ffffff" fill-opacity="1"><g transform="translate(332.673562, 190.51178)"><g><path d="M 1.5 0.046875 C 1.125 0.046875 0.820312 -0.0664062 0.59375 -0.296875 C 0.375 -0.535156 0.265625 -0.859375 0.265625 -1.265625 C 0.265625 -1.679688 0.367188 -2.007812 0.578125 -2.25 C 0.785156 -2.5 1.0625 -2.625 1.40625 -2.625 C 1.726562 -2.625 1.984375 -2.515625 2.171875 -2.296875 C 2.359375 -2.085938 2.453125 -1.8125 2.453125 -1.46875 L 2.453125 -1.21875 L 0.671875 -1.21875 C 0.679688 -0.914062 0.757812 -0.6875 0.90625 -0.53125 C 1.050781 -0.375 1.253906 -0.296875 1.515625 -0.296875 C 1.796875 -0.296875 2.070312 -0.351562 2.34375 -0.46875 L 2.34375 -0.125 C 2.207031 -0.0625 2.078125 -0.0195312 1.953125 0 C 1.828125 0.03125 1.675781 0.046875 1.5 0.046875 Z M 1.40625 -2.296875 C 1.195312 -2.296875 1.03125 -2.226562 0.90625 -2.09375 C 0.78125 -1.957031 0.707031 -1.773438 0.6875 -1.546875 L 2.03125 -1.546875 C 2.03125 -1.785156 1.972656 -1.96875 1.859375 -2.09375 C 1.753906 -2.226562 1.601562 -2.296875 1.40625 -2.296875 Z M 1.40625 -2.296875 "/></g></g></g><g fill="#ffffff" fill-opacity="1"><g transform="translate(304.038164, 183.871155)"><g><path d="M 3.21875 -1.75 C 3.21875 -1.1875 3.0625 -0.753906 2.75 -0.453125 C 2.445312 -0.148438 2.003906 0 1.421875 0 L 0.46875 0 L 0.46875 -3.453125 L 1.53125 -3.453125 C 2.0625 -3.453125 2.472656 -3.300781 2.765625 -3 C 3.066406 -2.707031 3.21875 -2.289062 3.21875 -1.75 Z M 2.796875 -1.734375 C 2.796875 -2.191406 2.679688 -2.53125 2.453125 -2.75 C 2.234375 -2.976562 1.898438 -3.09375 1.453125 -3.09375 L 0.875 -3.09375 L 0.875 -0.34375 L 1.359375 -0.34375 C 1.835938 -0.34375 2.195312 -0.457031 2.4375 -0.6875 C 2.675781 -0.925781 2.796875 -1.273438 2.796875 -1.734375 Z M 2.796875 -1.734375 "/></g></g></g><g fill="#ffffff" fill-opacity="1"><g transform="translate(307.553258, 183.871155)"><g><path d="M 1.5 0.046875 C 1.125 0.046875 0.820312 -0.0664062 0.59375 -0.296875 C 0.375 -0.535156 0.265625 -0.859375 0.265625 -1.265625 C 0.265625 -1.679688 0.367188 -2.007812 0.578125 -2.25 C 0.785156 -2.5 1.0625 -2.625 1.40625 -2.625 C 1.726562 -2.625 1.984375 -2.515625 2.171875 -2.296875 C 2.359375 -2.085938 2.453125 -1.8125 2.453125 -1.46875 L 2.453125 -1.21875 L 0.671875 -1.21875 C 0.679688 -0.914062 0.757812 -0.6875 0.90625 -0.53125 C 1.050781 -0.375 1.253906 -0.296875 1.515625 -0.296875 C 1.796875 -0.296875 2.070312 -0.351562 2.34375 -0.46875 L 2.34375 -0.125 C 2.207031 -0.0625 2.078125 -0.0195312 1.953125 0 C 1.828125 0.03125 1.675781 0.046875 1.5 0.046875 Z M 1.40625 -2.296875 C 1.195312 -2.296875 1.03125 -2.226562 0.90625 -2.09375 C 0.78125 -1.957031 0.707031 -1.773438 0.6875 -1.546875 L 2.03125 -1.546875 C 2.03125 -1.785156 1.972656 -1.96875 1.859375 -2.09375 C 1.753906 -2.226562 1.601562 -2.296875 1.40625 -2.296875 Z M 1.40625 -2.296875 "/></g></g></g><g fill="#ffffff" fill-opacity="1"><g transform="translate(310.258444, 183.871155)"><g><path d="M 0.984375 0 L 0 -2.578125 L 0.421875 -2.578125 L 0.96875 -1.046875 C 1.101562 -0.691406 1.179688 -0.460938 1.203125 -0.359375 L 1.21875 -0.359375 C 1.238281 -0.441406 1.289062 -0.613281 1.375 -0.875 C 1.46875 -1.132812 1.675781 -1.703125 2 -2.578125 L 2.421875 -2.578125 L 1.4375 0 Z M 0.984375 0 "/></g></g></g><g fill="#ffffff" fill-opacity="1"><g transform="translate(312.674042, 183.871155)"><g><path d="M 1.5 0.046875 C 1.125 0.046875 0.820312 -0.0664062 0.59375 -0.296875 C 0.375 -0.535156 0.265625 -0.859375 0.265625 -1.265625 C 0.265625 -1.679688 0.367188 -2.007812 0.578125 -2.25 C 0.785156 -2.5 1.0625 -2.625 1.40625 -2.625 C 1.726562 -2.625 1.984375 -2.515625 2.171875 -2.296875 C 2.359375 -2.085938 2.453125 -1.8125 2.453125 -1.46875 L 2.453125 -1.21875 L 0.671875 -1.21875 C 0.679688 -0.914062 0.757812 -0.6875 0.90625 -0.53125 C 1.050781 -0.375 1.253906 -0.296875 1.515625 -0.296875 C 1.796875 -0.296875 2.070312 -0.351562 2.34375 -0.46875 L 2.34375 -0.125 C 2.207031 -0.0625 2.078125 -0.0195312 1.953125 0 C 1.828125 0.03125 1.675781 0.046875 1.5 0.046875 Z M 1.40625 -2.296875 C 1.195312 -2.296875 1.03125 -2.226562 0.90625 -2.09375 C 0.78125 -1.957031 0.707031 -1.773438 0.6875 -1.546875 L 2.03125 -1.546875 C 2.03125 -1.785156 1.972656 -1.96875 1.859375 -2.09375 C 1.753906 -2.226562 1.601562 -2.296875 1.40625 -2.296875 Z M 1.40625 -2.296875 "/></g></g></g><g fill="#ffffff" fill-opacity="1"><g transform="translate(315.379228, 183.871155)"><g><path d="M 0.8125 0 L 0.421875 0 L 0.421875 -3.671875 L 0.8125 -3.671875 Z M 0.8125 0 "/></g></g></g><g fill="#ffffff" fill-opacity="1"><g transform="translate(316.598799, 183.871155)"><g><path d="M 2.640625 -1.296875 C 2.640625 -0.867188 2.535156 -0.535156 2.328125 -0.296875 C 2.117188 -0.0664062 1.828125 0.046875 1.453125 0.046875 C 1.210938 0.046875 1.003906 -0.00390625 0.828125 -0.109375 C 0.648438 -0.222656 0.507812 -0.378906 0.40625 -0.578125 C 0.3125 -0.785156 0.265625 -1.023438 0.265625 -1.296875 C 0.265625 -1.710938 0.367188 -2.035156 0.578125 -2.265625 C 0.796875 -2.503906 1.09375 -2.625 1.46875 -2.625 C 1.820312 -2.625 2.101562 -2.503906 2.3125 -2.265625 C 2.53125 -2.023438 2.640625 -1.703125 2.640625 -1.296875 Z M 0.671875 -1.296875 C 0.671875 -0.960938 0.738281 -0.707031 0.875 -0.53125 C 1.007812 -0.363281 1.203125 -0.28125 1.453125 -0.28125 C 1.710938 -0.28125 1.90625 -0.363281 2.03125 -0.53125 C 2.164062 -0.707031 2.234375 -0.960938 2.234375 -1.296875 C 2.234375 -1.617188 2.164062 -1.863281 2.03125 -2.03125 C 1.90625 -2.207031 1.710938 -2.296875 1.453125 -2.296875 C 1.191406 -2.296875 0.992188 -2.210938 0.859375 -2.046875 C 0.734375 -1.878906 0.671875 -1.628906 0.671875 -1.296875 Z M 0.671875 -1.296875 "/></g></g></g><g fill="#ffffff" fill-opacity="1"><g transform="translate(319.511171, 183.871155)"><g><path d="M 1.625 0.046875 C 1.445312 0.046875 1.289062 0.015625 1.15625 -0.046875 C 1.019531 -0.109375 0.90625 -0.203125 0.8125 -0.328125 L 0.78125 -0.328125 C 0.800781 -0.179688 0.8125 -0.0390625 0.8125 0.09375 L 0.8125 1.15625 L 0.421875 1.15625 L 0.421875 -2.578125 L 0.734375 -2.578125 L 0.78125 -2.234375 L 0.8125 -2.234375 C 0.90625 -2.367188 1.019531 -2.46875 1.15625 -2.53125 C 1.289062 -2.59375 1.445312 -2.625 1.625 -2.625 C 1.957031 -2.625 2.21875 -2.503906 2.40625 -2.265625 C 2.59375 -2.035156 2.6875 -1.710938 2.6875 -1.296875 C 2.6875 -0.867188 2.59375 -0.535156 2.40625 -0.296875 C 2.21875 -0.0664062 1.957031 0.046875 1.625 0.046875 Z M 1.5625 -2.296875 C 1.300781 -2.296875 1.109375 -2.222656 0.984375 -2.078125 C 0.867188 -1.929688 0.8125 -1.695312 0.8125 -1.375 L 0.8125 -1.296875 C 0.8125 -0.929688 0.867188 -0.671875 0.984375 -0.515625 C 1.109375 -0.359375 1.300781 -0.28125 1.5625 -0.28125 C 1.789062 -0.28125 1.96875 -0.367188 2.09375 -0.546875 C 2.21875 -0.734375 2.28125 -0.984375 2.28125 -1.296875 C 2.28125 -1.617188 2.21875 -1.863281 2.09375 -2.03125 C 1.96875 -2.207031 1.789062 -2.296875 1.5625 -2.296875 Z M 1.5625 -2.296875 "/></g></g></g><g fill="#ffffff" fill-opacity="1"><g transform="translate(322.465922, 183.871155)"><g/></g></g><g fill="#ffffff" fill-opacity="1"><g transform="translate(323.718453, 183.871155)"><g><path d="M 2 0 L 0.828125 -3.0625 L 0.8125 -3.0625 C 0.832031 -2.8125 0.84375 -2.519531 0.84375 -2.1875 L 0.84375 0 L 0.46875 0 L 0.46875 -3.453125 L 1.078125 -3.453125 L 2.171875 -0.609375 L 2.1875 -0.609375 L 3.28125 -3.453125 L 3.890625 -3.453125 L 3.890625 0 L 3.484375 0 L 3.484375 -2.21875 C 3.484375 -2.476562 3.492188 -2.753906 3.515625 -3.046875 L 3.5 -3.046875 L 2.328125 0 Z M 2 0 "/></g></g></g><g fill="#ffffff" fill-opacity="1"><g transform="translate(328.071708, 183.871155)"><g><path d="M 2.640625 -1.296875 C 2.640625 -0.867188 2.535156 -0.535156 2.328125 -0.296875 C 2.117188 -0.0664062 1.828125 0.046875 1.453125 0.046875 C 1.210938 0.046875 1.003906 -0.00390625 0.828125 -0.109375 C 0.648438 -0.222656 0.507812 -0.378906 0.40625 -0.578125 C 0.3125 -0.785156 0.265625 -1.023438 0.265625 -1.296875 C 0.265625 -1.710938 0.367188 -2.035156 0.578125 -2.265625 C 0.796875 -2.503906 1.09375 -2.625 1.46875 -2.625 C 1.820312 -2.625 2.101562 -2.503906 2.3125 -2.265625 C 2.53125 -2.023438 2.640625 -1.703125 2.640625 -1.296875 Z M 0.671875 -1.296875 C 0.671875 -0.960938 0.738281 -0.707031 0.875 -0.53125 C 1.007812 -0.363281 1.203125 -0.28125 1.453125 -0.28125 C 1.710938 -0.28125 1.90625 -0.363281 2.03125 -0.53125 C 2.164062 -0.707031 2.234375 -0.960938 2.234375 -1.296875 C 2.234375 -1.617188 2.164062 -1.863281 2.03125 -2.03125 C 1.90625 -2.207031 1.710938 -2.296875 1.453125 -2.296875 C 1.191406 -2.296875 0.992188 -2.210938 0.859375 -2.046875 C 0.734375 -1.878906 0.671875 -1.628906 0.671875 -1.296875 Z M 0.671875 -1.296875 "/></g></g></g><g fill="#ffffff" fill-opacity="1"><g transform="translate(330.98408, 183.871155)"><g><path d="M 1.625 -2.625 C 1.957031 -2.625 2.21875 -2.507812 2.40625 -2.28125 C 2.59375 -2.050781 2.6875 -1.722656 2.6875 -1.296875 C 2.6875 -0.867188 2.59375 -0.535156 2.40625 -0.296875 C 2.21875 -0.0664062 1.957031 0.046875 1.625 0.046875 C 1.445312 0.046875 1.289062 0.015625 1.15625 -0.046875 C 1.019531 -0.109375 0.90625 -0.203125 0.8125 -0.328125 L 0.78125 -0.328125 L 0.703125 0 L 0.421875 0 L 0.421875 -3.671875 L 0.8125 -3.671875 L 0.8125 -2.78125 C 0.8125 -2.582031 0.800781 -2.398438 0.78125 -2.234375 L 0.8125 -2.234375 C 0.988281 -2.492188 1.257812 -2.625 1.625 -2.625 Z M 1.5625 -2.296875 C 1.289062 -2.296875 1.097656 -2.21875 0.984375 -2.0625 C 0.867188 -1.914062 0.8125 -1.660156 0.8125 -1.296875 C 0.8125 -0.929688 0.867188 -0.671875 0.984375 -0.515625 C 1.109375 -0.359375 1.300781 -0.28125 1.5625 -0.28125 C 1.8125 -0.28125 1.992188 -0.367188 2.109375 -0.546875 C 2.222656 -0.722656 2.28125 -0.972656 2.28125 -1.296875 C 2.28125 -1.628906 2.222656 -1.878906 2.109375 -2.046875 C 1.992188 -2.210938 1.8125 -2.296875 1.5625 -2.296875 Z M 1.5625 -2.296875 "/></g></g></g><g fill="#ffffff" fill-opacity="1"><g transform="translate(333.938831, 183.871155)"><g><path d="M 0.8125 0 L 0.421875 0 L 0.421875 -2.578125 L 0.8125 -2.578125 Z M 0.375 -3.28125 C 0.375 -3.375 0.394531 -3.441406 0.4375 -3.484375 C 0.488281 -3.523438 0.546875 -3.546875 0.609375 -3.546875 C 0.671875 -3.546875 0.722656 -3.523438 0.765625 -3.484375 C 0.816406 -3.441406 0.84375 -3.375 0.84375 -3.28125 C 0.84375 -3.195312 0.816406 -3.128906 0.765625 -3.078125 C 0.722656 -3.035156 0.671875 -3.015625 0.609375 -3.015625 C 0.546875 -3.015625 0.488281 -3.035156 0.4375 -3.078125 C 0.394531 -3.128906 0.375 -3.195312 0.375 -3.28125 Z M 0.375 -3.28125 "/></g></g></g><g fill="#ffffff" fill-opacity="1"><g transform="translate(335.158402, 183.871155)"><g><path d="M 0.8125 0 L 0.421875 0 L 0.421875 -3.671875 L 0.8125 -3.671875 Z M 0.8125 0 "/></g></g></g><g fill="#ffffff" fill-opacity="1"><g transform="translate(336.377972, 183.871155)"><g><path d="M 1.5 0.046875 C 1.125 0.046875 0.820312 -0.0664062 0.59375 -0.296875 C 0.375 -0.535156 0.265625 -0.859375 0.265625 -1.265625 C 0.265625 -1.679688 0.367188 -2.007812 0.578125 -2.25 C 0.785156 -2.5 1.0625 -2.625 1.40625 -2.625 C 1.726562 -2.625 1.984375 -2.515625 2.171875 -2.296875 C 2.359375 -2.085938 2.453125 -1.8125 2.453125 -1.46875 L 2.453125 -1.21875 L 0.671875 -1.21875 C 0.679688 -0.914062 0.757812 -0.6875 0.90625 -0.53125 C 1.050781 -0.375 1.253906 -0.296875 1.515625 -0.296875 C 1.796875 -0.296875 2.070312 -0.351562 2.34375 -0.46875 L 2.34375 -0.125 C 2.207031 -0.0625 2.078125 -0.0195312 1.953125 0 C 1.828125 0.03125 1.675781 0.046875 1.5 0.046875 Z M 1.40625 -2.296875 C 1.195312 -2.296875 1.03125 -2.226562 0.90625 -2.09375 C 0.78125 -1.957031 0.707031 -1.773438 0.6875 -1.546875 L 2.03125 -1.546875 C 2.03125 -1.785156 1.972656 -1.96875 1.859375 -2.09375 C 1.753906 -2.226562 1.601562 -2.296875 1.40625 -2.296875 Z M 1.40625 -2.296875 "/></g></g></g><g fill="#ffffff" fill-opacity="1"><g transform="translate(315.927811, 190.51178)"><g><path d="M 2.640625 0 L 2.21875 -1.09375 L 0.828125 -1.09375 L 0.40625 0 L 0 0 L 1.359375 -3.453125 L 1.703125 -3.453125 L 3.0625 0 Z M 2.09375 -1.453125 L 1.6875 -2.53125 C 1.632812 -2.664062 1.582031 -2.828125 1.53125 -3.015625 C 1.488281 -2.867188 1.4375 -2.707031 1.375 -2.53125 L 0.96875 -1.453125 Z M 2.09375 -1.453125 "/></g></g></g><g fill="#ffffff" fill-opacity="1"><g transform="translate(318.979092, 190.51178)"><g><path d="M 1.625 0.046875 C 1.445312 0.046875 1.289062 0.015625 1.15625 -0.046875 C 1.019531 -0.109375 0.90625 -0.203125 0.8125 -0.328125 L 0.78125 -0.328125 C 0.800781 -0.179688 0.8125 -0.0390625 0.8125 0.09375 L 0.8125 1.15625 L 0.421875 1.15625 L 0.421875 -2.578125 L 0.734375 -2.578125 L 0.78125 -2.234375 L 0.8125 -2.234375 C 0.90625 -2.367188 1.019531 -2.46875 1.15625 -2.53125 C 1.289062 -2.59375 1.445312 -2.625 1.625 -2.625 C 1.957031 -2.625 2.21875 -2.503906 2.40625 -2.265625 C 2.59375 -2.035156 2.6875 -1.710938 2.6875 -1.296875 C 2.6875 -0.867188 2.59375 -0.535156 2.40625 -0.296875 C 2.21875 -0.0664062 1.957031 0.046875 1.625 0.046875 Z M 1.5625 -2.296875 C 1.300781 -2.296875 1.109375 -2.222656 0.984375 -2.078125 C 0.867188 -1.929688 0.8125 -1.695312 0.8125 -1.375 L 0.8125 -1.296875 C 0.8125 -0.929688 0.867188 -0.671875 0.984375 -0.515625 C 1.109375 -0.359375 1.300781 -0.28125 1.5625 -0.28125 C 1.789062 -0.28125 1.96875 -0.367188 2.09375 -0.546875 C 2.21875 -0.734375 2.28125 -0.984375 2.28125 -1.296875 C 2.28125 -1.617188 2.21875 -1.863281 2.09375 -2.03125 C 1.96875 -2.207031 1.789062 -2.296875 1.5625 -2.296875 Z M 1.5625 -2.296875 "/></g></g></g><g fill="#ffffff" fill-opacity="1"><g transform="translate(321.933843, 190.51178)"><g><path d="M 1.625 0.046875 C 1.445312 0.046875 1.289062 0.015625 1.15625 -0.046875 C 1.019531 -0.109375 0.90625 -0.203125 0.8125 -0.328125 L 0.78125 -0.328125 C 0.800781 -0.179688 0.8125 -0.0390625 0.8125 0.09375 L 0.8125 1.15625 L 0.421875 1.15625 L 0.421875 -2.578125 L 0.734375 -2.578125 L 0.78125 -2.234375 L 0.8125 -2.234375 C 0.90625 -2.367188 1.019531 -2.46875 1.15625 -2.53125 C 1.289062 -2.59375 1.445312 -2.625 1.625 -2.625 C 1.957031 -2.625 2.21875 -2.503906 2.40625 -2.265625 C 2.59375 -2.035156 2.6875 -1.710938 2.6875 -1.296875 C 2.6875 -0.867188 2.59375 -0.535156 2.40625 -0.296875 C 2.21875 -0.0664062 1.957031 0.046875 1.625 0.046875 Z M 1.5625 -2.296875 C 1.300781 -2.296875 1.109375 -2.222656 0.984375 -2.078125 C 0.867188 -1.929688 0.8125 -1.695312 0.8125 -1.375 L 0.8125 -1.296875 C 0.8125 -0.929688 0.867188 -0.671875 0.984375 -0.515625 C 1.109375 -0.359375 1.300781 -0.28125 1.5625 -0.28125 C 1.789062 -0.28125 1.96875 -0.367188 2.09375 -0.546875 C 2.21875 -0.734375 2.28125 -0.984375 2.28125 -1.296875 C 2.28125 -1.617188 2.21875 -1.863281 2.09375 -2.03125 C 1.96875 -2.207031 1.789062 -2.296875 1.5625 -2.296875 Z M 1.5625 -2.296875 "/></g></g></g><g fill="#ffffff" fill-opacity="1"><g transform="translate(324.888594, 190.51178)"><g><path d="M 2.078125 -0.703125 C 2.078125 -0.460938 1.988281 -0.273438 1.8125 -0.140625 C 1.632812 -0.015625 1.382812 0.046875 1.0625 0.046875 C 0.71875 0.046875 0.445312 -0.00390625 0.25 -0.109375 L 0.25 -0.484375 C 0.375 -0.421875 0.507812 -0.367188 0.65625 -0.328125 C 0.800781 -0.296875 0.9375 -0.28125 1.0625 -0.28125 C 1.269531 -0.28125 1.425781 -0.3125 1.53125 -0.375 C 1.644531 -0.4375 1.703125 -0.535156 1.703125 -0.671875 C 1.703125 -0.773438 1.65625 -0.859375 1.5625 -0.921875 C 1.476562 -0.992188 1.3125 -1.082031 1.0625 -1.1875 C 0.820312 -1.269531 0.648438 -1.34375 0.546875 -1.40625 C 0.441406 -1.476562 0.363281 -1.554688 0.3125 -1.640625 C 0.269531 -1.722656 0.25 -1.828125 0.25 -1.953125 C 0.25 -2.160156 0.332031 -2.320312 0.5 -2.4375 C 0.675781 -2.5625 0.914062 -2.625 1.21875 -2.625 C 1.488281 -2.625 1.757812 -2.570312 2.03125 -2.46875 L 1.890625 -2.140625 C 1.628906 -2.242188 1.394531 -2.296875 1.1875 -2.296875 C 1 -2.296875 0.859375 -2.265625 0.765625 -2.203125 C 0.671875 -2.148438 0.625 -2.070312 0.625 -1.96875 C 0.625 -1.90625 0.640625 -1.847656 0.671875 -1.796875 C 0.710938 -1.742188 0.769531 -1.695312 0.84375 -1.65625 C 0.925781 -1.613281 1.078125 -1.550781 1.296875 -1.46875 C 1.609375 -1.351562 1.816406 -1.238281 1.921875 -1.125 C 2.023438 -1.019531 2.078125 -0.878906 2.078125 -0.703125 Z M 2.078125 -0.703125 "/></g></g></g><path fill="#3170f7" d="M 326.765625 139.433594 C 300.214844 139.433594 278.695312 160.953125 278.695312 187.503906 C 278.695312 214.050781 300.214844 235.574219 326.765625 235.574219 C 353.3125 235.574219 374.835938 214.050781 374.835938 187.503906 C 374.835938 160.953125 353.3125 139.433594 326.765625 139.433594 " fill-opacity="1" fill-rule="nonzero"/><g fill="#ffffff" fill-opacity="1"><g transform="translate(286.050779, 184.199055)"><g><path d="M 6.8125 -3.703125 C 6.8125 -2.503906 6.484375 -1.585938 5.828125 -0.953125 C 5.171875 -0.316406 4.234375 0 3.015625 0 L 1 0 L 1 -7.265625 L 3.234375 -7.265625 C 4.359375 -7.265625 5.234375 -6.953125 5.859375 -6.328125 C 6.492188 -5.703125 6.8125 -4.828125 6.8125 -3.703125 Z M 5.90625 -3.671875 C 5.90625 -4.617188 5.664062 -5.332031 5.1875 -5.8125 C 4.71875 -6.300781 4.015625 -6.546875 3.078125 -6.546875 L 1.84375 -6.546875 L 1.84375 -0.734375 L 2.875 -0.734375 C 3.882812 -0.734375 4.640625 -0.976562 5.140625 -1.46875 C 5.648438 -1.96875 5.90625 -2.703125 5.90625 -3.671875 Z M 5.90625 -3.671875 "/></g></g></g><g fill="#ffffff" fill-opacity="1"><g transform="translate(293.476761, 184.199055)"><g><path d="M 3.171875 0.09375 C 2.367188 0.09375 1.734375 -0.148438 1.265625 -0.640625 C 0.804688 -1.128906 0.578125 -1.8125 0.578125 -2.6875 C 0.578125 -3.5625 0.789062 -4.253906 1.21875 -4.765625 C 1.65625 -5.285156 2.238281 -5.546875 2.96875 -5.546875 C 3.644531 -5.546875 4.179688 -5.320312 4.578125 -4.875 C 4.984375 -4.425781 5.1875 -3.832031 5.1875 -3.09375 L 5.1875 -2.578125 L 1.421875 -2.578125 C 1.441406 -1.929688 1.601562 -1.441406 1.90625 -1.109375 C 2.21875 -0.785156 2.648438 -0.625 3.203125 -0.625 C 3.796875 -0.625 4.378906 -0.742188 4.953125 -0.984375 L 4.953125 -0.25 C 4.660156 -0.125 4.382812 -0.0351562 4.125 0.015625 C 3.863281 0.0664062 3.546875 0.09375 3.171875 0.09375 Z M 2.953125 -4.859375 C 2.515625 -4.859375 2.164062 -4.710938 1.90625 -4.421875 C 1.644531 -4.140625 1.492188 -3.75 1.453125 -3.25 L 4.296875 -3.25 C 4.296875 -3.769531 4.175781 -4.164062 3.9375 -4.4375 C 3.707031 -4.71875 3.378906 -4.859375 2.953125 -4.859375 Z M 2.953125 -4.859375 "/></g></g></g><g fill="#ffffff" fill-opacity="1"><g transform="translate(299.191732, 184.199055)"><g><path d="M 2.0625 0 L 0 -5.453125 L 0.890625 -5.453125 L 2.0625 -2.21875 C 2.320312 -1.457031 2.476562 -0.96875 2.53125 -0.75 L 2.5625 -0.75 C 2.601562 -0.925781 2.71875 -1.289062 2.90625 -1.84375 C 3.101562 -2.394531 3.539062 -3.597656 4.21875 -5.453125 L 5.109375 -5.453125 L 3.03125 0 Z M 2.0625 0 "/></g></g></g><g fill="#ffffff" fill-opacity="1"><g transform="translate(304.294918, 184.199055)"><g><path d="M 3.171875 0.09375 C 2.367188 0.09375 1.734375 -0.148438 1.265625 -0.640625 C 0.804688 -1.128906 0.578125 -1.8125 0.578125 -2.6875 C 0.578125 -3.5625 0.789062 -4.253906 1.21875 -4.765625 C 1.65625 -5.285156 2.238281 -5.546875 2.96875 -5.546875 C 3.644531 -5.546875 4.179688 -5.320312 4.578125 -4.875 C 4.984375 -4.425781 5.1875 -3.832031 5.1875 -3.09375 L 5.1875 -2.578125 L 1.421875 -2.578125 C 1.441406 -1.929688 1.601562 -1.441406 1.90625 -1.109375 C 2.21875 -0.785156 2.648438 -0.625 3.203125 -0.625 C 3.796875 -0.625 4.378906 -0.742188 4.953125 -0.984375 L 4.953125 -0.25 C 4.660156 -0.125 4.382812 -0.0351562 4.125 0.015625 C 3.863281 0.0664062 3.546875 0.09375 3.171875 0.09375 Z M 2.953125 -4.859375 C 2.515625 -4.859375 2.164062 -4.710938 1.90625 -4.421875 C 1.644531 -4.140625 1.492188 -3.75 1.453125 -3.25 L 4.296875 -3.25 C 4.296875 -3.769531 4.175781 -4.164062 3.9375 -4.4375 C 3.707031 -4.71875 3.378906 -4.859375 2.953125 -4.859375 Z M 2.953125 -4.859375 "/></g></g></g><g fill="#ffffff" fill-opacity="1"><g transform="translate(310.00989, 184.199055)"><g><path d="M 1.703125 0 L 0.875 0 L 0.875 -7.734375 L 1.703125 -7.734375 Z M 1.703125 0 "/></g></g></g><g fill="#ffffff" fill-opacity="1"><g transform="translate(312.586352, 184.199055)"><g><path d="M 5.578125 -2.734375 C 5.578125 -1.835938 5.351562 -1.140625 4.90625 -0.640625 C 4.457031 -0.148438 3.835938 0.09375 3.046875 0.09375 C 2.566406 0.09375 2.132812 -0.0195312 1.75 -0.25 C 1.375 -0.476562 1.082031 -0.804688 0.875 -1.234375 C 0.675781 -1.660156 0.578125 -2.160156 0.578125 -2.734375 C 0.578125 -3.617188 0.796875 -4.304688 1.234375 -4.796875 C 1.679688 -5.296875 2.300781 -5.546875 3.09375 -5.546875 C 3.851562 -5.546875 4.457031 -5.289062 4.90625 -4.78125 C 5.351562 -4.28125 5.578125 -3.597656 5.578125 -2.734375 Z M 1.421875 -2.734375 C 1.421875 -2.035156 1.5625 -1.503906 1.84375 -1.140625 C 2.125 -0.773438 2.535156 -0.59375 3.078125 -0.59375 C 3.617188 -0.59375 4.023438 -0.773438 4.296875 -1.140625 C 4.578125 -1.503906 4.71875 -2.035156 4.71875 -2.734375 C 4.71875 -3.421875 4.578125 -3.941406 4.296875 -4.296875 C 4.023438 -4.660156 3.613281 -4.84375 3.0625 -4.84375 C 2.519531 -4.84375 2.109375 -4.664062 1.828125 -4.3125 C 1.554688 -3.957031 1.421875 -3.429688 1.421875 -2.734375 Z M 1.421875 -2.734375 "/></g></g></g><g fill="#ffffff" fill-opacity="1"><g transform="translate(318.739024, 184.199055)"><g><path d="M 3.40625 0.09375 C 3.050781 0.09375 2.726562 0.03125 2.4375 -0.09375 C 2.144531 -0.226562 1.898438 -0.429688 1.703125 -0.703125 L 1.640625 -0.703125 C 1.679688 -0.378906 1.703125 -0.078125 1.703125 0.203125 L 1.703125 2.453125 L 0.875 2.453125 L 0.875 -5.453125 L 1.546875 -5.453125 L 1.65625 -4.703125 L 1.703125 -4.703125 C 1.910156 -5.003906 2.15625 -5.21875 2.4375 -5.34375 C 2.71875 -5.476562 3.039062 -5.546875 3.40625 -5.546875 C 4.132812 -5.546875 4.691406 -5.296875 5.078125 -4.796875 C 5.472656 -4.304688 5.671875 -3.617188 5.671875 -2.734375 C 5.671875 -1.835938 5.472656 -1.140625 5.078125 -0.640625 C 4.679688 -0.148438 4.125 0.09375 3.40625 0.09375 Z M 3.296875 -4.84375 C 2.734375 -4.84375 2.328125 -4.6875 2.078125 -4.375 C 1.835938 -4.070312 1.710938 -3.585938 1.703125 -2.921875 L 1.703125 -2.734375 C 1.703125 -1.960938 1.828125 -1.410156 2.078125 -1.078125 C 2.335938 -0.753906 2.75 -0.59375 3.3125 -0.59375 C 3.78125 -0.59375 4.144531 -0.78125 4.40625 -1.15625 C 4.675781 -1.539062 4.8125 -2.066406 4.8125 -2.734375 C 4.8125 -3.421875 4.675781 -3.941406 4.40625 -4.296875 C 4.144531 -4.660156 3.773438 -4.84375 3.296875 -4.84375 Z M 3.296875 -4.84375 "/></g></g></g><g fill="#ffffff" fill-opacity="1"><g transform="translate(324.981226, 184.199055)"><g><path d="M 7.828125 0 L 7.828125 -3.546875 C 7.828125 -3.984375 7.734375 -4.304688 7.546875 -4.515625 C 7.359375 -4.734375 7.070312 -4.84375 6.6875 -4.84375 C 6.164062 -4.84375 5.78125 -4.695312 5.53125 -4.40625 C 5.289062 -4.113281 5.171875 -3.660156 5.171875 -3.046875 L 5.171875 0 L 4.34375 0 L 4.34375 -3.546875 C 4.34375 -3.984375 4.25 -4.304688 4.0625 -4.515625 C 3.882812 -4.734375 3.597656 -4.84375 3.203125 -4.84375 C 2.679688 -4.84375 2.300781 -4.6875 2.0625 -4.375 C 1.820312 -4.070312 1.703125 -3.566406 1.703125 -2.859375 L 1.703125 0 L 0.875 0 L 0.875 -5.453125 L 1.546875 -5.453125 L 1.6875 -4.703125 L 1.71875 -4.703125 C 1.875 -4.972656 2.09375 -5.179688 2.375 -5.328125 C 2.664062 -5.472656 2.984375 -5.546875 3.328125 -5.546875 C 4.179688 -5.546875 4.738281 -5.238281 5 -4.625 L 5.046875 -4.625 C 5.203125 -4.90625 5.4375 -5.128906 5.75 -5.296875 C 6.0625 -5.460938 6.414062 -5.546875 6.8125 -5.546875 C 7.425781 -5.546875 7.882812 -5.382812 8.1875 -5.0625 C 8.5 -4.75 8.65625 -4.25 8.65625 -3.5625 L 8.65625 0 Z M 7.828125 0 "/></g></g></g><g fill="#ffffff" fill-opacity="1"><g transform="translate(334.45644, 184.199055)"><g><path d="M 3.171875 0.09375 C 2.367188 0.09375 1.734375 -0.148438 1.265625 -0.640625 C 0.804688 -1.128906 0.578125 -1.8125 0.578125 -2.6875 C 0.578125 -3.5625 0.789062 -4.253906 1.21875 -4.765625 C 1.65625 -5.285156 2.238281 -5.546875 2.96875 -5.546875 C 3.644531 -5.546875 4.179688 -5.320312 4.578125 -4.875 C 4.984375 -4.425781 5.1875 -3.832031 5.1875 -3.09375 L 5.1875 -2.578125 L 1.421875 -2.578125 C 1.441406 -1.929688 1.601562 -1.441406 1.90625 -1.109375 C 2.21875 -0.785156 2.648438 -0.625 3.203125 -0.625 C 3.796875 -0.625 4.378906 -0.742188 4.953125 -0.984375 L 4.953125 -0.25 C 4.660156 -0.125 4.382812 -0.0351562 4.125 0.015625 C 3.863281 0.0664062 3.546875 0.09375 3.171875 0.09375 Z M 2.953125 -4.859375 C 2.515625 -4.859375 2.164062 -4.710938 1.90625 -4.421875 C 1.644531 -4.140625 1.492188 -3.75 1.453125 -3.25 L 4.296875 -3.25 C 4.296875 -3.769531 4.175781 -4.164062 3.9375 -4.4375 C 3.707031 -4.71875 3.378906 -4.859375 2.953125 -4.859375 Z M 2.953125 -4.859375 "/></g></g></g><g fill="#ffffff" fill-opacity="1"><g transform="translate(340.171411, 184.199055)"><g><path d="M 4.609375 0 L 4.609375 -3.53125 C 4.609375 -3.96875 4.503906 -4.296875 4.296875 -4.515625 C 4.097656 -4.734375 3.785156 -4.84375 3.359375 -4.84375 C 2.785156 -4.84375 2.363281 -4.6875 2.09375 -4.375 C 1.832031 -4.070312 1.703125 -3.566406 1.703125 -2.859375 L 1.703125 0 L 0.875 0 L 0.875 -5.453125 L 1.546875 -5.453125 L 1.6875 -4.703125 L 1.71875 -4.703125 C 1.882812 -4.972656 2.117188 -5.179688 2.421875 -5.328125 C 2.734375 -5.472656 3.078125 -5.546875 3.453125 -5.546875 C 4.109375 -5.546875 4.601562 -5.382812 4.9375 -5.0625 C 5.269531 -4.75 5.4375 -4.25 5.4375 -3.5625 L 5.4375 0 Z M 4.609375 0 "/></g></g></g><g fill="#ffffff" fill-opacity="1"><g transform="translate(346.42356, 184.199055)"><g><path d="M 2.640625 -0.578125 C 2.785156 -0.578125 2.925781 -0.585938 3.0625 -0.609375 C 3.195312 -0.628906 3.300781 -0.65625 3.375 -0.6875 L 3.375 -0.046875 C 3.289062 -0.00390625 3.160156 0.0234375 2.984375 0.046875 C 2.804688 0.078125 2.648438 0.09375 2.515625 0.09375 C 1.460938 0.09375 0.9375 -0.457031 0.9375 -1.5625 L 0.9375 -4.8125 L 0.15625 -4.8125 L 0.15625 -5.203125 L 0.9375 -5.546875 L 1.28125 -6.71875 L 1.765625 -6.71875 L 1.765625 -5.453125 L 3.34375 -5.453125 L 3.34375 -4.8125 L 1.765625 -4.8125 L 1.765625 -1.609375 C 1.765625 -1.273438 1.84375 -1.019531 2 -0.84375 C 2.15625 -0.664062 2.367188 -0.578125 2.640625 -0.578125 Z M 2.640625 -0.578125 "/></g></g></g><g fill="#ffffff" fill-opacity="1"><g transform="translate(350.019665, 184.199055)"><g/></g></g><g fill="#ffffff" fill-opacity="1"><g transform="translate(352.665762, 184.199055)"><g><path d="M 7.3125 -3.640625 C 7.3125 -2.484375 7.015625 -1.570312 6.421875 -0.90625 C 5.835938 -0.238281 5.019531 0.09375 3.96875 0.09375 C 2.90625 0.09375 2.082031 -0.226562 1.5 -0.875 C 0.914062 -1.53125 0.625 -2.457031 0.625 -3.65625 C 0.625 -4.84375 0.914062 -5.757812 1.5 -6.40625 C 2.082031 -7.0625 2.910156 -7.390625 3.984375 -7.390625 C 5.023438 -7.390625 5.835938 -7.054688 6.421875 -6.390625 C 7.015625 -5.722656 7.3125 -4.804688 7.3125 -3.640625 Z M 1.515625 -3.640625 C 1.515625 -2.660156 1.722656 -1.914062 2.140625 -1.40625 C 2.566406 -0.894531 3.175781 -0.640625 3.96875 -0.640625 C 4.78125 -0.640625 5.390625 -0.890625 5.796875 -1.390625 C 6.210938 -1.898438 6.421875 -2.648438 6.421875 -3.640625 C 6.421875 -4.617188 6.210938 -5.359375 5.796875 -5.859375 C 5.390625 -6.367188 4.785156 -6.625 3.984375 -6.625 C 3.179688 -6.625 2.566406 -6.367188 2.140625 -5.859375 C 1.722656 -5.359375 1.515625 -4.617188 1.515625 -3.640625 Z M 1.515625 -3.640625 "/></g></g></g><g fill="#ffffff" fill-opacity="1"><g transform="translate(360.599077, 184.199055)"><g><path d="M 3.328125 -4.8125 L 1.9375 -4.8125 L 1.9375 0 L 1.125 0 L 1.125 -4.8125 L 0.140625 -4.8125 L 0.140625 -5.1875 L 1.125 -5.484375 L 1.125 -5.78125 C 1.125 -7.125 1.707031 -7.796875 2.875 -7.796875 C 3.164062 -7.796875 3.503906 -7.738281 3.890625 -7.625 L 3.671875 -6.953125 C 3.359375 -7.054688 3.085938 -7.109375 2.859375 -7.109375 C 2.546875 -7.109375 2.3125 -7.003906 2.15625 -6.796875 C 2.007812 -6.585938 1.9375 -6.257812 1.9375 -5.8125 L 1.9375 -5.453125 L 3.328125 -5.453125 Z M 3.328125 -4.8125 "/></g></g></g><g fill="#ffffff" fill-opacity="1"><g transform="translate(295.605437, 198.228026)"><g><path d="M 4.21875 0 L 1.75 -6.453125 L 1.71875 -6.453125 C 1.757812 -5.941406 1.78125 -5.332031 1.78125 -4.625 L 1.78125 0 L 1 0 L 1 -7.265625 L 2.265625 -7.265625 L 4.578125 -1.28125 L 4.609375 -1.28125 L 6.9375 -7.265625 L 8.203125 -7.265625 L 8.203125 0 L 7.359375 0 L 7.359375 -4.6875 C 7.359375 -5.21875 7.378906 -5.800781 7.421875 -6.4375 L 7.390625 -6.4375 L 4.90625 0 Z M 4.21875 0 "/></g></g></g><g fill="#ffffff" fill-opacity="1"><g transform="translate(304.802114, 198.228026)"><g><path d="M 5.578125 -2.734375 C 5.578125 -1.835938 5.351562 -1.140625 4.90625 -0.640625 C 4.457031 -0.148438 3.835938 0.09375 3.046875 0.09375 C 2.566406 0.09375 2.132812 -0.0195312 1.75 -0.25 C 1.375 -0.476562 1.082031 -0.804688 0.875 -1.234375 C 0.675781 -1.660156 0.578125 -2.160156 0.578125 -2.734375 C 0.578125 -3.617188 0.796875 -4.304688 1.234375 -4.796875 C 1.679688 -5.296875 2.300781 -5.546875 3.09375 -5.546875 C 3.851562 -5.546875 4.457031 -5.289062 4.90625 -4.78125 C 5.351562 -4.28125 5.578125 -3.597656 5.578125 -2.734375 Z M 1.421875 -2.734375 C 1.421875 -2.035156 1.5625 -1.503906 1.84375 -1.140625 C 2.125 -0.773438 2.535156 -0.59375 3.078125 -0.59375 C 3.617188 -0.59375 4.023438 -0.773438 4.296875 -1.140625 C 4.578125 -1.503906 4.71875 -2.035156 4.71875 -2.734375 C 4.71875 -3.421875 4.578125 -3.941406 4.296875 -4.296875 C 4.023438 -4.660156 3.613281 -4.84375 3.0625 -4.84375 C 2.519531 -4.84375 2.109375 -4.664062 1.828125 -4.3125 C 1.554688 -3.957031 1.421875 -3.429688 1.421875 -2.734375 Z M 1.421875 -2.734375 "/></g></g></g><g fill="#ffffff" fill-opacity="1"><g transform="translate(310.954786, 198.228026)"><g><path d="M 3.40625 -5.546875 C 4.125 -5.546875 4.679688 -5.300781 5.078125 -4.8125 C 5.472656 -4.320312 5.671875 -3.628906 5.671875 -2.734375 C 5.671875 -1.835938 5.472656 -1.140625 5.078125 -0.640625 C 4.679688 -0.148438 4.125 0.09375 3.40625 0.09375 C 3.050781 0.09375 2.726562 0.03125 2.4375 -0.09375 C 2.144531 -0.226562 1.898438 -0.429688 1.703125 -0.703125 L 1.640625 -0.703125 L 1.46875 0 L 0.875 0 L 0.875 -7.734375 L 1.703125 -7.734375 L 1.703125 -5.859375 C 1.703125 -5.441406 1.6875 -5.0625 1.65625 -4.71875 L 1.703125 -4.71875 C 2.085938 -5.269531 2.65625 -5.546875 3.40625 -5.546875 Z M 3.296875 -4.84375 C 2.734375 -4.84375 2.328125 -4.679688 2.078125 -4.359375 C 1.828125 -4.035156 1.703125 -3.492188 1.703125 -2.734375 C 1.703125 -1.960938 1.828125 -1.410156 2.078125 -1.078125 C 2.335938 -0.753906 2.75 -0.59375 3.3125 -0.59375 C 3.820312 -0.59375 4.195312 -0.773438 4.4375 -1.140625 C 4.6875 -1.515625 4.8125 -2.046875 4.8125 -2.734375 C 4.8125 -3.453125 4.6875 -3.984375 4.4375 -4.328125 C 4.195312 -4.671875 3.816406 -4.84375 3.296875 -4.84375 Z M 3.296875 -4.84375 "/></g></g></g><g fill="#ffffff" fill-opacity="1"><g transform="translate(317.196987, 198.228026)"><g><path d="M 1.703125 0 L 0.875 0 L 0.875 -5.453125 L 1.703125 -5.453125 Z M 0.8125 -6.921875 C 0.8125 -7.117188 0.851562 -7.257812 0.9375 -7.34375 C 1.03125 -7.425781 1.148438 -7.46875 1.296875 -7.46875 C 1.429688 -7.46875 1.546875 -7.421875 1.640625 -7.328125 C 1.734375 -7.242188 1.78125 -7.109375 1.78125 -6.921875 C 1.78125 -6.742188 1.734375 -6.609375 1.640625 -6.515625 C 1.546875 -6.421875 1.429688 -6.375 1.296875 -6.375 C 1.148438 -6.375 1.03125 -6.421875 0.9375 -6.515625 C 0.851562 -6.609375 0.8125 -6.742188 0.8125 -6.921875 Z M 0.8125 -6.921875 "/></g></g></g><g fill="#ffffff" fill-opacity="1"><g transform="translate(319.77345, 198.228026)"><g><path d="M 1.703125 0 L 0.875 0 L 0.875 -7.734375 L 1.703125 -7.734375 Z M 1.703125 0 "/></g></g></g><g fill="#ffffff" fill-opacity="1"><g transform="translate(322.349912, 198.228026)"><g><path d="M 3.171875 0.09375 C 2.367188 0.09375 1.734375 -0.148438 1.265625 -0.640625 C 0.804688 -1.128906 0.578125 -1.8125 0.578125 -2.6875 C 0.578125 -3.5625 0.789062 -4.253906 1.21875 -4.765625 C 1.65625 -5.285156 2.238281 -5.546875 2.96875 -5.546875 C 3.644531 -5.546875 4.179688 -5.320312 4.578125 -4.875 C 4.984375 -4.425781 5.1875 -3.832031 5.1875 -3.09375 L 5.1875 -2.578125 L 1.421875 -2.578125 C 1.441406 -1.929688 1.601562 -1.441406 1.90625 -1.109375 C 2.21875 -0.785156 2.648438 -0.625 3.203125 -0.625 C 3.796875 -0.625 4.378906 -0.742188 4.953125 -0.984375 L 4.953125 -0.25 C 4.660156 -0.125 4.382812 -0.0351562 4.125 0.015625 C 3.863281 0.0664062 3.546875 0.09375 3.171875 0.09375 Z M 2.953125 -4.859375 C 2.515625 -4.859375 2.164062 -4.710938 1.90625 -4.421875 C 1.644531 -4.140625 1.492188 -3.75 1.453125 -3.25 L 4.296875 -3.25 C 4.296875 -3.769531 4.175781 -4.164062 3.9375 -4.4375 C 3.707031 -4.71875 3.378906 -4.859375 2.953125 -4.859375 Z M 2.953125 -4.859375 "/></g></g></g><g fill="#ffffff" fill-opacity="1"><g transform="translate(328.064884, 198.228026)"><g/></g></g><g fill="#ffffff" fill-opacity="1"><g transform="translate(330.71098, 198.228026)"><g><path d="M 5.578125 0 L 4.671875 -2.3125 L 1.75 -2.3125 L 0.859375 0 L 0 0 L 2.875 -7.296875 L 3.59375 -7.296875 L 6.453125 0 Z M 4.40625 -3.078125 L 3.5625 -5.328125 C 3.445312 -5.609375 3.332031 -5.957031 3.21875 -6.375 C 3.144531 -6.0625 3.039062 -5.710938 2.90625 -5.328125 L 2.046875 -3.078125 Z M 4.40625 -3.078125 "/></g></g></g><g fill="#ffffff" fill-opacity="1"><g transform="translate(337.15711, 198.228026)"><g><path d="M 3.40625 0.09375 C 3.050781 0.09375 2.726562 0.03125 2.4375 -0.09375 C 2.144531 -0.226562 1.898438 -0.429688 1.703125 -0.703125 L 1.640625 -0.703125 C 1.679688 -0.378906 1.703125 -0.078125 1.703125 0.203125 L 1.703125 2.453125 L 0.875 2.453125 L 0.875 -5.453125 L 1.546875 -5.453125 L 1.65625 -4.703125 L 1.703125 -4.703125 C 1.910156 -5.003906 2.15625 -5.21875 2.4375 -5.34375 C 2.71875 -5.476562 3.039062 -5.546875 3.40625 -5.546875 C 4.132812 -5.546875 4.691406 -5.296875 5.078125 -4.796875 C 5.472656 -4.304688 5.671875 -3.617188 5.671875 -2.734375 C 5.671875 -1.835938 5.472656 -1.140625 5.078125 -0.640625 C 4.679688 -0.148438 4.125 0.09375 3.40625 0.09375 Z M 3.296875 -4.84375 C 2.734375 -4.84375 2.328125 -4.6875 2.078125 -4.375 C 1.835938 -4.070312 1.710938 -3.585938 1.703125 -2.921875 L 1.703125 -2.734375 C 1.703125 -1.960938 1.828125 -1.410156 2.078125 -1.078125 C 2.335938 -0.753906 2.75 -0.59375 3.3125 -0.59375 C 3.78125 -0.59375 4.144531 -0.78125 4.40625 -1.15625 C 4.675781 -1.539062 4.8125 -2.066406 4.8125 -2.734375 C 4.8125 -3.421875 4.675781 -3.941406 4.40625 -4.296875 C 4.144531 -4.660156 3.773438 -4.84375 3.296875 -4.84375 Z M 3.296875 -4.84375 "/></g></g></g><g fill="#ffffff" fill-opacity="1"><g transform="translate(343.399311, 198.228026)"><g><path d="M 3.40625 0.09375 C 3.050781 0.09375 2.726562 0.03125 2.4375 -0.09375 C 2.144531 -0.226562 1.898438 -0.429688 1.703125 -0.703125 L 1.640625 -0.703125 C 1.679688 -0.378906 1.703125 -0.078125 1.703125 0.203125 L 1.703125 2.453125 L 0.875 2.453125 L 0.875 -5.453125 L 1.546875 -5.453125 L 1.65625 -4.703125 L 1.703125 -4.703125 C 1.910156 -5.003906 2.15625 -5.21875 2.4375 -5.34375 C 2.71875 -5.476562 3.039062 -5.546875 3.40625 -5.546875 C 4.132812 -5.546875 4.691406 -5.296875 5.078125 -4.796875 C 5.472656 -4.304688 5.671875 -3.617188 5.671875 -2.734375 C 5.671875 -1.835938 5.472656 -1.140625 5.078125 -0.640625 C 4.679688 -0.148438 4.125 0.09375 3.40625 0.09375 Z M 3.296875 -4.84375 C 2.734375 -4.84375 2.328125 -4.6875 2.078125 -4.375 C 1.835938 -4.070312 1.710938 -3.585938 1.703125 -2.921875 L 1.703125 -2.734375 C 1.703125 -1.960938 1.828125 -1.410156 2.078125 -1.078125 C 2.335938 -0.753906 2.75 -0.59375 3.3125 -0.59375 C 3.78125 -0.59375 4.144531 -0.78125 4.40625 -1.15625 C 4.675781 -1.539062 4.8125 -2.066406 4.8125 -2.734375 C 4.8125 -3.421875 4.675781 -3.941406 4.40625 -4.296875 C 4.144531 -4.660156 3.773438 -4.84375 3.296875 -4.84375 Z M 3.296875 -4.84375 "/></g></g></g><g fill="#ffffff" fill-opacity="1"><g transform="translate(349.641513, 198.228026)"><g><path d="M 4.390625 -1.484375 C 4.390625 -0.972656 4.203125 -0.582031 3.828125 -0.3125 C 3.453125 -0.0390625 2.921875 0.09375 2.234375 0.09375 C 1.515625 0.09375 0.953125 -0.0195312 0.546875 -0.25 L 0.546875 -1.015625 C 0.804688 -0.878906 1.082031 -0.769531 1.375 -0.6875 C 1.675781 -0.613281 1.96875 -0.578125 2.25 -0.578125 C 2.6875 -0.578125 3.019531 -0.644531 3.25 -0.78125 C 3.476562 -0.925781 3.59375 -1.140625 3.59375 -1.421875 C 3.59375 -1.628906 3.5 -1.804688 3.3125 -1.953125 C 3.132812 -2.109375 2.78125 -2.289062 2.25 -2.5 C 1.738281 -2.6875 1.375 -2.847656 1.15625 -2.984375 C 0.945312 -3.128906 0.789062 -3.289062 0.6875 -3.46875 C 0.582031 -3.644531 0.53125 -3.859375 0.53125 -4.109375 C 0.53125 -4.554688 0.707031 -4.90625 1.0625 -5.15625 C 1.425781 -5.414062 1.925781 -5.546875 2.5625 -5.546875 C 3.144531 -5.546875 3.71875 -5.425781 4.28125 -5.1875 L 3.984375 -4.515625 C 3.429688 -4.742188 2.9375 -4.859375 2.5 -4.859375 C 2.101562 -4.859375 1.804688 -4.796875 1.609375 -4.671875 C 1.410156 -4.546875 1.3125 -4.378906 1.3125 -4.171875 C 1.3125 -4.023438 1.347656 -3.898438 1.421875 -3.796875 C 1.492188 -3.691406 1.613281 -3.59375 1.78125 -3.5 C 1.945312 -3.40625 2.265625 -3.269531 2.734375 -3.09375 C 3.378906 -2.863281 3.816406 -2.628906 4.046875 -2.390625 C 4.273438 -2.148438 4.390625 -1.847656 4.390625 -1.484375 Z M 4.390625 -1.484375 "/></g></g></g><path fill="#3170f7" d="M 182.613281 139.433594 C 156.066406 139.433594 134.546875 160.953125 134.546875 187.503906 C 134.546875 214.050781 156.066406 235.574219 182.613281 235.574219 C 209.164062 235.574219 230.683594 214.050781 230.683594 187.503906 C 230.683594 160.953125 209.164062 139.433594 182.613281 139.433594 " fill-opacity="1" fill-rule="nonzero"/><g fill="#ffffff" fill-opacity="1"><g transform="translate(137.981426, 184.199055)"><g><path d="M 4.203125 -3.8125 L 6.671875 -3.8125 L 6.671875 -0.28125 C 6.285156 -0.15625 5.894531 -0.0625 5.5 0 C 5.101562 0.0625 4.640625 0.09375 4.109375 0.09375 C 3.015625 0.09375 2.160156 -0.226562 1.546875 -0.875 C 0.929688 -1.53125 0.625 -2.453125 0.625 -3.640625 C 0.625 -4.390625 0.773438 -5.050781 1.078125 -5.625 C 1.378906 -6.195312 1.816406 -6.628906 2.390625 -6.921875 C 2.960938 -7.222656 3.628906 -7.375 4.390625 -7.375 C 5.171875 -7.375 5.894531 -7.234375 6.5625 -6.953125 L 6.234375 -6.203125 C 5.578125 -6.484375 4.945312 -6.625 4.34375 -6.625 C 3.457031 -6.625 2.765625 -6.359375 2.265625 -5.828125 C 1.765625 -5.296875 1.515625 -4.566406 1.515625 -3.640625 C 1.515625 -2.648438 1.753906 -1.898438 2.234375 -1.390625 C 2.710938 -0.890625 3.414062 -0.640625 4.34375 -0.640625 C 4.851562 -0.640625 5.347656 -0.695312 5.828125 -0.8125 L 5.828125 -3.046875 L 4.203125 -3.046875 Z M 4.203125 -3.8125 "/></g></g></g><g fill="#ffffff" fill-opacity="1"><g transform="translate(145.39746, 184.199055)"><g><path d="M 3.359375 -5.546875 C 3.597656 -5.546875 3.816406 -5.523438 4.015625 -5.484375 L 3.90625 -4.71875 C 3.675781 -4.769531 3.472656 -4.796875 3.296875 -4.796875 C 2.859375 -4.796875 2.484375 -4.613281 2.171875 -4.25 C 1.859375 -3.894531 1.703125 -3.453125 1.703125 -2.921875 L 1.703125 0 L 0.875 0 L 0.875 -5.453125 L 1.5625 -5.453125 L 1.65625 -4.4375 L 1.6875 -4.4375 C 1.894531 -4.789062 2.140625 -5.0625 2.421875 -5.25 C 2.703125 -5.445312 3.015625 -5.546875 3.359375 -5.546875 Z M 3.359375 -5.546875 "/></g></g></g><g fill="#ffffff" fill-opacity="1"><g transform="translate(149.555611, 184.199055)"><g><path d="M 5.578125 -2.734375 C 5.578125 -1.835938 5.351562 -1.140625 4.90625 -0.640625 C 4.457031 -0.148438 3.835938 0.09375 3.046875 0.09375 C 2.566406 0.09375 2.132812 -0.0195312 1.75 -0.25 C 1.375 -0.476562 1.082031 -0.804688 0.875 -1.234375 C 0.675781 -1.660156 0.578125 -2.160156 0.578125 -2.734375 C 0.578125 -3.617188 0.796875 -4.304688 1.234375 -4.796875 C 1.679688 -5.296875 2.300781 -5.546875 3.09375 -5.546875 C 3.851562 -5.546875 4.457031 -5.289062 4.90625 -4.78125 C 5.351562 -4.28125 5.578125 -3.597656 5.578125 -2.734375 Z M 1.421875 -2.734375 C 1.421875 -2.035156 1.5625 -1.503906 1.84375 -1.140625 C 2.125 -0.773438 2.535156 -0.59375 3.078125 -0.59375 C 3.617188 -0.59375 4.023438 -0.773438 4.296875 -1.140625 C 4.578125 -1.503906 4.71875 -2.035156 4.71875 -2.734375 C 4.71875 -3.421875 4.578125 -3.941406 4.296875 -4.296875 C 4.023438 -4.660156 3.613281 -4.84375 3.0625 -4.84375 C 2.519531 -4.84375 2.109375 -4.664062 1.828125 -4.3125 C 1.554688 -3.957031 1.421875 -3.429688 1.421875 -2.734375 Z M 1.421875 -2.734375 "/></g></g></g><g fill="#ffffff" fill-opacity="1"><g transform="translate(155.708283, 184.199055)"><g><path d="M 5.328125 0 L 4.328125 -3.203125 C 4.265625 -3.390625 4.144531 -3.832031 3.96875 -4.53125 L 3.9375 -4.53125 C 3.800781 -3.945312 3.6875 -3.5 3.59375 -3.1875 L 2.5625 0 L 1.609375 0 L 0.109375 -5.453125 L 0.984375 -5.453125 C 1.328125 -4.078125 1.59375 -3.03125 1.78125 -2.3125 C 1.96875 -1.601562 2.070312 -1.125 2.09375 -0.875 L 2.140625 -0.875 C 2.171875 -1.0625 2.226562 -1.304688 2.3125 -1.609375 C 2.394531 -1.910156 2.46875 -2.148438 2.53125 -2.328125 L 3.53125 -5.453125 L 4.421875 -5.453125 L 5.390625 -2.328125 C 5.578125 -1.753906 5.707031 -1.273438 5.78125 -0.890625 L 5.8125 -0.890625 C 5.820312 -1.003906 5.859375 -1.1875 5.921875 -1.4375 C 5.984375 -1.6875 6.328125 -3.023438 6.953125 -5.453125 L 7.8125 -5.453125 L 6.3125 0 Z M 5.328125 0 "/></g></g></g><g fill="#ffffff" fill-opacity="1"><g transform="translate(163.631651, 184.199055)"><g><path d="M 1.703125 0 L 0.875 0 L 0.875 -5.453125 L 1.703125 -5.453125 Z M 0.8125 -6.921875 C 0.8125 -7.117188 0.851562 -7.257812 0.9375 -7.34375 C 1.03125 -7.425781 1.148438 -7.46875 1.296875 -7.46875 C 1.429688 -7.46875 1.546875 -7.421875 1.640625 -7.328125 C 1.734375 -7.242188 1.78125 -7.109375 1.78125 -6.921875 C 1.78125 -6.742188 1.734375 -6.609375 1.640625 -6.515625 C 1.546875 -6.421875 1.429688 -6.375 1.296875 -6.375 C 1.148438 -6.375 1.03125 -6.421875 0.9375 -6.515625 C 0.851562 -6.609375 0.8125 -6.742188 0.8125 -6.921875 Z M 0.8125 -6.921875 "/></g></g></g><g fill="#ffffff" fill-opacity="1"><g transform="translate(166.208113, 184.199055)"><g><path d="M 4.609375 0 L 4.609375 -3.53125 C 4.609375 -3.96875 4.503906 -4.296875 4.296875 -4.515625 C 4.097656 -4.734375 3.785156 -4.84375 3.359375 -4.84375 C 2.785156 -4.84375 2.363281 -4.6875 2.09375 -4.375 C 1.832031 -4.070312 1.703125 -3.566406 1.703125 -2.859375 L 1.703125 0 L 0.875 0 L 0.875 -5.453125 L 1.546875 -5.453125 L 1.6875 -4.703125 L 1.71875 -4.703125 C 1.882812 -4.972656 2.117188 -5.179688 2.421875 -5.328125 C 2.734375 -5.472656 3.078125 -5.546875 3.453125 -5.546875 C 4.109375 -5.546875 4.601562 -5.382812 4.9375 -5.0625 C 5.269531 -4.75 5.4375 -4.25 5.4375 -3.5625 L 5.4375 0 Z M 4.609375 0 "/></g></g></g><g fill="#ffffff" fill-opacity="1"><g transform="translate(172.460262, 184.199055)"><g><path d="M 5.34375 -5.453125 L 5.34375 -4.921875 L 4.328125 -4.8125 C 4.421875 -4.695312 4.503906 -4.546875 4.578125 -4.359375 C 4.648438 -4.171875 4.6875 -3.957031 4.6875 -3.71875 C 4.6875 -3.1875 4.503906 -2.757812 4.140625 -2.4375 C 3.773438 -2.125 3.273438 -1.96875 2.640625 -1.96875 C 2.472656 -1.96875 2.316406 -1.976562 2.171875 -2 C 1.828125 -1.8125 1.65625 -1.578125 1.65625 -1.296875 C 1.65625 -1.148438 1.710938 -1.039062 1.828125 -0.96875 C 1.953125 -0.894531 2.164062 -0.859375 2.46875 -0.859375 L 3.4375 -0.859375 C 4.019531 -0.859375 4.46875 -0.734375 4.78125 -0.484375 C 5.101562 -0.242188 5.265625 0.113281 5.265625 0.59375 C 5.265625 1.195312 5.019531 1.65625 4.53125 1.96875 C 4.050781 2.289062 3.347656 2.453125 2.421875 2.453125 C 1.710938 2.453125 1.160156 2.316406 0.765625 2.046875 C 0.378906 1.785156 0.1875 1.410156 0.1875 0.921875 C 0.1875 0.585938 0.289062 0.300781 0.5 0.0625 C 0.71875 -0.175781 1.019531 -0.335938 1.40625 -0.421875 C 1.269531 -0.484375 1.15625 -0.582031 1.0625 -0.71875 C 0.96875 -0.851562 0.921875 -1.007812 0.921875 -1.1875 C 0.921875 -1.382812 0.972656 -1.554688 1.078125 -1.703125 C 1.179688 -1.859375 1.347656 -2.003906 1.578125 -2.140625 C 1.296875 -2.253906 1.066406 -2.453125 0.890625 -2.734375 C 0.710938 -3.015625 0.625 -3.332031 0.625 -3.6875 C 0.625 -4.28125 0.800781 -4.738281 1.15625 -5.0625 C 1.519531 -5.382812 2.03125 -5.546875 2.6875 -5.546875 C 2.96875 -5.546875 3.222656 -5.515625 3.453125 -5.453125 Z M 0.984375 0.921875 C 0.984375 1.210938 1.109375 1.429688 1.359375 1.578125 C 1.609375 1.734375 1.96875 1.8125 2.4375 1.8125 C 3.125 1.8125 3.632812 1.707031 3.96875 1.5 C 4.300781 1.289062 4.46875 1.007812 4.46875 0.65625 C 4.46875 0.363281 4.375 0.160156 4.1875 0.046875 C 4.007812 -0.0664062 3.671875 -0.125 3.171875 -0.125 L 2.171875 -0.125 C 1.796875 -0.125 1.503906 -0.0351562 1.296875 0.140625 C 1.085938 0.316406 0.984375 0.578125 0.984375 0.921875 Z M 1.4375 -3.703125 C 1.4375 -3.328125 1.539062 -3.039062 1.75 -2.84375 C 1.96875 -2.644531 2.269531 -2.546875 2.65625 -2.546875 C 3.46875 -2.546875 3.875 -2.9375 3.875 -3.71875 C 3.875 -4.539062 3.460938 -4.953125 2.640625 -4.953125 C 2.253906 -4.953125 1.957031 -4.847656 1.75 -4.640625 C 1.539062 -4.429688 1.4375 -4.117188 1.4375 -3.703125 Z M 1.4375 -3.703125 "/></g></g></g><g fill="#ffffff" fill-opacity="1"><g transform="translate(178.04094, 184.199055)"><g/></g></g><g fill="#ffffff" fill-opacity="1"><g transform="translate(180.687036, 184.199055)"><g><path d="M 7.3125 -3.640625 C 7.3125 -2.484375 7.015625 -1.570312 6.421875 -0.90625 C 5.835938 -0.238281 5.019531 0.09375 3.96875 0.09375 C 2.90625 0.09375 2.082031 -0.226562 1.5 -0.875 C 0.914062 -1.53125 0.625 -2.457031 0.625 -3.65625 C 0.625 -4.84375 0.914062 -5.757812 1.5 -6.40625 C 2.082031 -7.0625 2.910156 -7.390625 3.984375 -7.390625 C 5.023438 -7.390625 5.835938 -7.054688 6.421875 -6.390625 C 7.015625 -5.722656 7.3125 -4.804688 7.3125 -3.640625 Z M 1.515625 -3.640625 C 1.515625 -2.660156 1.722656 -1.914062 2.140625 -1.40625 C 2.566406 -0.894531 3.175781 -0.640625 3.96875 -0.640625 C 4.78125 -0.640625 5.390625 -0.890625 5.796875 -1.390625 C 6.210938 -1.898438 6.421875 -2.648438 6.421875 -3.640625 C 6.421875 -4.617188 6.210938 -5.359375 5.796875 -5.859375 C 5.390625 -6.367188 4.785156 -6.625 3.984375 -6.625 C 3.179688 -6.625 2.566406 -6.367188 2.140625 -5.859375 C 1.722656 -5.359375 1.515625 -4.617188 1.515625 -3.640625 Z M 1.515625 -3.640625 "/></g></g></g><g fill="#ffffff" fill-opacity="1"><g transform="translate(188.620352, 184.199055)"><g><path d="M 1.65625 -5.453125 L 1.65625 -1.921875 C 1.65625 -1.472656 1.753906 -1.140625 1.953125 -0.921875 C 2.160156 -0.703125 2.476562 -0.59375 2.90625 -0.59375 C 3.476562 -0.59375 3.894531 -0.75 4.15625 -1.0625 C 4.414062 -1.375 4.546875 -1.882812 4.546875 -2.59375 L 4.546875 -5.453125 L 5.375 -5.453125 L 5.375 0 L 4.703125 0 L 4.578125 -0.734375 L 4.53125 -0.734375 C 4.363281 -0.460938 4.128906 -0.253906 3.828125 -0.109375 C 3.523438 0.0234375 3.179688 0.09375 2.796875 0.09375 C 2.140625 0.09375 1.644531 -0.0625 1.3125 -0.375 C 0.976562 -0.6875 0.8125 -1.191406 0.8125 -1.890625 L 0.8125 -5.453125 Z M 1.65625 -5.453125 "/></g></g></g><g fill="#ffffff" fill-opacity="1"><g transform="translate(194.872501, 184.199055)"><g><path d="M 3.359375 -5.546875 C 3.597656 -5.546875 3.816406 -5.523438 4.015625 -5.484375 L 3.90625 -4.71875 C 3.675781 -4.769531 3.472656 -4.796875 3.296875 -4.796875 C 2.859375 -4.796875 2.484375 -4.613281 2.171875 -4.25 C 1.859375 -3.894531 1.703125 -3.453125 1.703125 -2.921875 L 1.703125 0 L 0.875 0 L 0.875 -5.453125 L 1.5625 -5.453125 L 1.65625 -4.4375 L 1.6875 -4.4375 C 1.894531 -4.789062 2.140625 -5.0625 2.421875 -5.25 C 2.703125 -5.445312 3.015625 -5.546875 3.359375 -5.546875 Z M 3.359375 -5.546875 "/></g></g></g><g fill="#ffffff" fill-opacity="1"><g transform="translate(199.030653, 184.199055)"><g/></g></g><g fill="#ffffff" fill-opacity="1"><g transform="translate(201.676749, 184.199055)"><g><path d="M 6.484375 -7.265625 L 6.484375 -2.5625 C 6.484375 -1.738281 6.234375 -1.085938 5.734375 -0.609375 C 5.234375 -0.140625 4.546875 0.09375 3.671875 0.09375 C 2.796875 0.09375 2.117188 -0.140625 1.640625 -0.609375 C 1.160156 -1.085938 0.921875 -1.75 0.921875 -2.59375 L 0.921875 -7.265625 L 1.765625 -7.265625 L 1.765625 -2.53125 C 1.765625 -1.914062 1.929688 -1.445312 2.265625 -1.125 C 2.597656 -0.800781 3.085938 -0.640625 3.734375 -0.640625 C 4.347656 -0.640625 4.816406 -0.800781 5.140625 -1.125 C 5.472656 -1.457031 5.640625 -1.925781 5.640625 -2.53125 L 5.640625 -7.265625 Z M 6.484375 -7.265625 "/></g></g></g><g fill="#ffffff" fill-opacity="1"><g transform="translate(209.092783, 184.199055)"><g><path d="M 4.390625 -1.484375 C 4.390625 -0.972656 4.203125 -0.582031 3.828125 -0.3125 C 3.453125 -0.0390625 2.921875 0.09375 2.234375 0.09375 C 1.515625 0.09375 0.953125 -0.0195312 0.546875 -0.25 L 0.546875 -1.015625 C 0.804688 -0.878906 1.082031 -0.769531 1.375 -0.6875 C 1.675781 -0.613281 1.96875 -0.578125 2.25 -0.578125 C 2.6875 -0.578125 3.019531 -0.644531 3.25 -0.78125 C 3.476562 -0.925781 3.59375 -1.140625 3.59375 -1.421875 C 3.59375 -1.628906 3.5 -1.804688 3.3125 -1.953125 C 3.132812 -2.109375 2.78125 -2.289062 2.25 -2.5 C 1.738281 -2.6875 1.375 -2.847656 1.15625 -2.984375 C 0.945312 -3.128906 0.789062 -3.289062 0.6875 -3.46875 C 0.582031 -3.644531 0.53125 -3.859375 0.53125 -4.109375 C 0.53125 -4.554688 0.707031 -4.90625 1.0625 -5.15625 C 1.425781 -5.414062 1.925781 -5.546875 2.5625 -5.546875 C 3.144531 -5.546875 3.71875 -5.425781 4.28125 -5.1875 L 3.984375 -4.515625 C 3.429688 -4.742188 2.9375 -4.859375 2.5 -4.859375 C 2.101562 -4.859375 1.804688 -4.796875 1.609375 -4.671875 C 1.410156 -4.546875 1.3125 -4.378906 1.3125 -4.171875 C 1.3125 -4.023438 1.347656 -3.898438 1.421875 -3.796875 C 1.492188 -3.691406 1.613281 -3.59375 1.78125 -3.5 C 1.945312 -3.40625 2.265625 -3.269531 2.734375 -3.09375 C 3.378906 -2.863281 3.816406 -2.628906 4.046875 -2.390625 C 4.273438 -2.148438 4.390625 -1.847656 4.390625 -1.484375 Z M 4.390625 -1.484375 "/></g></g></g><g fill="#ffffff" fill-opacity="1"><g transform="translate(213.952249, 184.199055)"><g><path d="M 3.171875 0.09375 C 2.367188 0.09375 1.734375 -0.148438 1.265625 -0.640625 C 0.804688 -1.128906 0.578125 -1.8125 0.578125 -2.6875 C 0.578125 -3.5625 0.789062 -4.253906 1.21875 -4.765625 C 1.65625 -5.285156 2.238281 -5.546875 2.96875 -5.546875 C 3.644531 -5.546875 4.179688 -5.320312 4.578125 -4.875 C 4.984375 -4.425781 5.1875 -3.832031 5.1875 -3.09375 L 5.1875 -2.578125 L 1.421875 -2.578125 C 1.441406 -1.929688 1.601562 -1.441406 1.90625 -1.109375 C 2.21875 -0.785156 2.648438 -0.625 3.203125 -0.625 C 3.796875 -0.625 4.378906 -0.742188 4.953125 -0.984375 L 4.953125 -0.25 C 4.660156 -0.125 4.382812 -0.0351562 4.125 0.015625 C 3.863281 0.0664062 3.546875 0.09375 3.171875 0.09375 Z M 2.953125 -4.859375 C 2.515625 -4.859375 2.164062 -4.710938 1.90625 -4.421875 C 1.644531 -4.140625 1.492188 -3.75 1.453125 -3.25 L 4.296875 -3.25 C 4.296875 -3.769531 4.175781 -4.164062 3.9375 -4.4375 C 3.707031 -4.71875 3.378906 -4.859375 2.953125 -4.859375 Z M 2.953125 -4.859375 "/></g></g></g><g fill="#ffffff" fill-opacity="1"><g transform="translate(219.667221, 184.199055)"><g><path d="M 3.359375 -5.546875 C 3.597656 -5.546875 3.816406 -5.523438 4.015625 -5.484375 L 3.90625 -4.71875 C 3.675781 -4.769531 3.472656 -4.796875 3.296875 -4.796875 C 2.859375 -4.796875 2.484375 -4.613281 2.171875 -4.25 C 1.859375 -3.894531 1.703125 -3.453125 1.703125 -2.921875 L 1.703125 0 L 0.875 0 L 0.875 -5.453125 L 1.5625 -5.453125 L 1.65625 -4.4375 L 1.6875 -4.4375 C 1.894531 -4.789062 2.140625 -5.0625 2.421875 -5.25 C 2.703125 -5.445312 3.015625 -5.546875 3.359375 -5.546875 Z M 3.359375 -5.546875 "/></g></g></g><g fill="#ffffff" fill-opacity="1"><g transform="translate(169.482139, 198.228026)"><g><path d="M 1 -7.265625 L 3.046875 -7.265625 C 4.015625 -7.265625 4.710938 -7.117188 5.140625 -6.828125 C 5.578125 -6.546875 5.796875 -6.09375 5.796875 -5.46875 C 5.796875 -5.039062 5.675781 -4.6875 5.4375 -4.40625 C 5.195312 -4.125 4.84375 -3.941406 4.375 -3.859375 L 4.375 -3.8125 C 5.476562 -3.625 6.03125 -3.039062 6.03125 -2.0625 C 6.03125 -1.414062 5.8125 -0.910156 5.375 -0.546875 C 4.9375 -0.179688 4.320312 0 3.53125 0 L 1 0 Z M 1.84375 -4.15625 L 3.234375 -4.15625 C 3.835938 -4.15625 4.269531 -4.25 4.53125 -4.4375 C 4.789062 -4.625 4.921875 -4.941406 4.921875 -5.390625 C 4.921875 -5.796875 4.773438 -6.085938 4.484375 -6.265625 C 4.191406 -6.453125 3.726562 -6.546875 3.09375 -6.546875 L 1.84375 -6.546875 Z M 1.84375 -3.4375 L 1.84375 -0.71875 L 3.359375 -0.71875 C 3.953125 -0.71875 4.394531 -0.832031 4.6875 -1.0625 C 4.988281 -1.289062 5.140625 -1.644531 5.140625 -2.125 C 5.140625 -2.582031 4.984375 -2.914062 4.671875 -3.125 C 4.367188 -3.332031 3.910156 -3.4375 3.296875 -3.4375 Z M 1.84375 -3.4375 "/></g></g></g><g fill="#ffffff" fill-opacity="1"><g transform="translate(176.082458, 198.228026)"><g><path d="M 4.234375 0 L 4.0625 -0.78125 L 4.03125 -0.78125 C 3.75 -0.4375 3.472656 -0.203125 3.203125 -0.078125 C 2.941406 0.0351562 2.609375 0.09375 2.203125 0.09375 C 1.660156 0.09375 1.234375 -0.0390625 0.921875 -0.3125 C 0.617188 -0.59375 0.46875 -0.988281 0.46875 -1.5 C 0.46875 -2.601562 1.347656 -3.179688 3.109375 -3.234375 L 4.03125 -3.265625 L 4.03125 -3.609375 C 4.03125 -4.035156 3.9375 -4.347656 3.75 -4.546875 C 3.570312 -4.753906 3.28125 -4.859375 2.875 -4.859375 C 2.414062 -4.859375 1.898438 -4.71875 1.328125 -4.4375 L 1.078125 -5.078125 C 1.347656 -5.222656 1.640625 -5.335938 1.953125 -5.421875 C 2.273438 -5.503906 2.597656 -5.546875 2.921875 -5.546875 C 3.578125 -5.546875 4.0625 -5.398438 4.375 -5.109375 C 4.6875 -4.816406 4.84375 -4.351562 4.84375 -3.71875 L 4.84375 0 Z M 2.359375 -0.578125 C 2.878906 -0.578125 3.285156 -0.71875 3.578125 -1 C 3.867188 -1.28125 4.015625 -1.675781 4.015625 -2.1875 L 4.015625 -2.6875 L 3.1875 -2.640625 C 2.53125 -2.617188 2.054688 -2.515625 1.765625 -2.328125 C 1.472656 -2.148438 1.328125 -1.875 1.328125 -1.5 C 1.328125 -1.195312 1.414062 -0.96875 1.59375 -0.8125 C 1.78125 -0.65625 2.035156 -0.578125 2.359375 -0.578125 Z M 2.359375 -0.578125 "/></g></g></g><g fill="#ffffff" fill-opacity="1"><g transform="translate(181.747691, 198.228026)"><g><path d="M 4.390625 -1.484375 C 4.390625 -0.972656 4.203125 -0.582031 3.828125 -0.3125 C 3.453125 -0.0390625 2.921875 0.09375 2.234375 0.09375 C 1.515625 0.09375 0.953125 -0.0195312 0.546875 -0.25 L 0.546875 -1.015625 C 0.804688 -0.878906 1.082031 -0.769531 1.375 -0.6875 C 1.675781 -0.613281 1.96875 -0.578125 2.25 -0.578125 C 2.6875 -0.578125 3.019531 -0.644531 3.25 -0.78125 C 3.476562 -0.925781 3.59375 -1.140625 3.59375 -1.421875 C 3.59375 -1.628906 3.5 -1.804688 3.3125 -1.953125 C 3.132812 -2.109375 2.78125 -2.289062 2.25 -2.5 C 1.738281 -2.6875 1.375 -2.847656 1.15625 -2.984375 C 0.945312 -3.128906 0.789062 -3.289062 0.6875 -3.46875 C 0.582031 -3.644531 0.53125 -3.859375 0.53125 -4.109375 C 0.53125 -4.554688 0.707031 -4.90625 1.0625 -5.15625 C 1.425781 -5.414062 1.925781 -5.546875 2.5625 -5.546875 C 3.144531 -5.546875 3.71875 -5.425781 4.28125 -5.1875 L 3.984375 -4.515625 C 3.429688 -4.742188 2.9375 -4.859375 2.5 -4.859375 C 2.101562 -4.859375 1.804688 -4.796875 1.609375 -4.671875 C 1.410156 -4.546875 1.3125 -4.378906 1.3125 -4.171875 C 1.3125 -4.023438 1.347656 -3.898438 1.421875 -3.796875 C 1.492188 -3.691406 1.613281 -3.59375 1.78125 -3.5 C 1.945312 -3.40625 2.265625 -3.269531 2.734375 -3.09375 C 3.378906 -2.863281 3.816406 -2.628906 4.046875 -2.390625 C 4.273438 -2.148438 4.390625 -1.847656 4.390625 -1.484375 Z M 4.390625 -1.484375 "/></g></g></g><g fill="#ffffff" fill-opacity="1"><g transform="translate(186.607158, 198.228026)"><g><path d="M 3.171875 0.09375 C 2.367188 0.09375 1.734375 -0.148438 1.265625 -0.640625 C 0.804688 -1.128906 0.578125 -1.8125 0.578125 -2.6875 C 0.578125 -3.5625 0.789062 -4.253906 1.21875 -4.765625 C 1.65625 -5.285156 2.238281 -5.546875 2.96875 -5.546875 C 3.644531 -5.546875 4.179688 -5.320312 4.578125 -4.875 C 4.984375 -4.425781 5.1875 -3.832031 5.1875 -3.09375 L 5.1875 -2.578125 L 1.421875 -2.578125 C 1.441406 -1.929688 1.601562 -1.441406 1.90625 -1.109375 C 2.21875 -0.785156 2.648438 -0.625 3.203125 -0.625 C 3.796875 -0.625 4.378906 -0.742188 4.953125 -0.984375 L 4.953125 -0.25 C 4.660156 -0.125 4.382812 -0.0351562 4.125 0.015625 C 3.863281 0.0664062 3.546875 0.09375 3.171875 0.09375 Z M 2.953125 -4.859375 C 2.515625 -4.859375 2.164062 -4.710938 1.90625 -4.421875 C 1.644531 -4.140625 1.492188 -3.75 1.453125 -3.25 L 4.296875 -3.25 C 4.296875 -3.769531 4.175781 -4.164062 3.9375 -4.4375 C 3.707031 -4.71875 3.378906 -4.859375 2.953125 -4.859375 Z M 2.953125 -4.859375 "/></g></g></g><path stroke-linecap="butt" transform="matrix(3.748458, 0, 0, 3.75, 100.442254, 189.374988)" fill="none" stroke-linejoin="miter" d="M -0.000226134 0.00000331617 L 7.604984 0.00000331617 " stroke="#000000" stroke-width="1" stroke-opacity="1" stroke-miterlimit="4"/><path stroke-linecap="butt" transform="matrix(3.748458, 0, 0, 3.75, 239.0456, 189.374988)" fill="none" stroke-linejoin="miter" d="M 0.000340139 0.00000331617 L 7.60555 0.00000331617 " stroke="#000000" stroke-width="1" stroke-opacity="1" stroke-miterlimit="4"/></svg>