<svg xmlns="http://www.w3.org/2000/svg" xmlns:xlink="http://www.w3.org/1999/xlink" width="48" zoomAndPan="magnify" viewBox="0 0 36 36.000001" height="48" preserveAspectRatio="xMidYMid meet" version="1.0"><defs><clipPath id="id1"><path d="M 0.488281 0 L 35.511719 0 L 35.511719 35.027344 L 0.488281 35.027344 Z M 0.488281 0 " clip-rule="nonzero"/></clipPath><clipPath id="id2"><path d="M 20 5 L 35 5 L 35 31.960938 L 20 31.960938 Z M 20 5 " clip-rule="nonzero"/></clipPath><clipPath id="id3"><path d="M 1 5 L 16 5 L 16 31.960938 L 1 31.960938 Z M 1 5 " clip-rule="nonzero"/></clipPath><clipPath id="id4"><path d="M 10 3.503906 L 26 3.503906 L 26 17 L 10 17 Z M 10 3.503906 " clip-rule="nonzero"/></clipPath></defs><g clip-path="url(#id1)"><path fill="#ffffff" d="M 0.488281 0 L 35.511719 0 L 35.511719 42.324219 L 0.488281 42.324219 Z M 0.488281 0 " fill-opacity="1" fill-rule="nonzero"/><path fill="#ffffff" d="M 0.488281 0 L 35.511719 0 L 35.511719 35.027344 L 0.488281 35.027344 Z M 0.488281 0 " fill-opacity="1" fill-rule="nonzero"/><path fill="#ffffff" d="M 0.488281 0 L 35.511719 0 L 35.511719 35.027344 L 0.488281 35.027344 Z M 0.488281 0 " fill-opacity="1" fill-rule="nonzero"/><path fill="#ffffff" d="M 0.488281 0 L 35.511719 0 L 35.511719 35.027344 L 0.488281 35.027344 Z M 0.488281 0 " fill-opacity="1" fill-rule="nonzero"/></g><g clip-path="url(#id2)"><path fill="#f57c67" d="M 33.152344 5.511719 C 32.105469 5.632812 31.613281 6.457031 31.632812 7.523438 C 31.695312 10.394531 31.304688 13.660156 29.726562 16.019531 C 29.113281 16.945312 28.367188 17.554688 27.476562 18.292969 L 28.691406 15.964844 C 29.074219 15.234375 28.789062 14.328125 28.054688 13.949219 C 27.324219 13.566406 26.417969 13.851562 26.035156 14.582031 L 22.355469 21.625 C 18.929688 26.351562 21.066406 31.941406 21.066406 31.941406 L 26.351562 31.964844 C 26.378906 29.265625 28.042969 26.964844 28.042969 26.964844 C 35.484375 18.242188 34.9375 9.777344 34.890625 7.613281 C 34.863281 6.347656 34.195312 5.390625 33.152344 5.511719 " fill-opacity="1" fill-rule="nonzero"/></g><g clip-path="url(#id3)"><path fill="#f57c67" d="M 2.847656 5.511719 C 3.894531 5.632812 4.386719 6.457031 4.367188 7.523438 C 4.304688 10.394531 4.695312 13.660156 6.273438 16.019531 C 6.886719 16.945312 7.632812 17.554688 8.523438 18.292969 L 7.308594 15.964844 C 6.925781 15.234375 7.210938 14.328125 7.945312 13.949219 C 8.675781 13.566406 9.582031 13.851562 9.964844 14.582031 L 13.648438 21.625 C 17.070312 26.351562 14.933594 31.941406 14.933594 31.941406 L 9.648438 31.964844 C 9.621094 29.265625 7.957031 26.964844 7.957031 26.964844 C 0.515625 18.242188 1.0625 9.777344 1.109375 7.613281 C 1.136719 6.347656 1.804688 5.390625 2.847656 5.511719 " fill-opacity="1" fill-rule="nonzero"/></g><g clip-path="url(#id4)"><path fill="#ee3224" d="M 25.210938 7.683594 C 25.210938 5.371094 23.332031 3.5 21.015625 3.5 C 19.628906 3.5 18.398438 4.171875 17.636719 5.207031 C 16.875 4.171875 15.644531 3.5 14.257812 3.5 C 11.941406 3.5 10.0625 5.371094 10.0625 7.683594 C 10.0625 8.800781 10.503906 9.816406 11.21875 10.566406 L 17.441406 16.863281 L 24.332031 10.246094 C 24.878906 9.539062 25.210938 8.648438 25.210938 7.683594 " fill-opacity="1" fill-rule="nonzero"/></g></svg>